<?xml version="1.0" encoding="UTF-8"?>
<svg version="1.1" xmlns="http://www.w3.org/2000/svg" width="180" height="180">
<path d="M0 0 C59.4 0 118.8 0 180 0 C180 59.4 180 118.8 180 180 C120.6 180 61.2 180 0 180 C0 120.6 0 61.2 0 0 Z " fill="#FDFDFD" transform="translate(0,0)"/>
<path d="M0 0 C2.9375 2.375 2.9375 2.375 5 5 C5.66 5.66 6.32 6.32 7 7 C7 8.32 7 9.64 7 11 C6.38125 11.185625 5.7625 11.37125 5.125 11.5625 C1.94966268 13.7105223 1.88956051 16.37821791 1 20 C0.34 20.99 -0.32 21.98 -1 23 C-0.38125 23.28875 0.2375 23.5775 0.875 23.875 C3 25 3 25 5 27 C7.47326954 27.14091482 7.47326954 27.14091482 10 26 C12.33414647 23.04150073 12.33414647 23.04150073 14 20 C14.625 21.75 14.625 21.75 15 24 C14.52433594 24.93972656 14.52433594 24.93972656 14.0390625 25.8984375 C10.93986202 32.16674523 13.50072565 41.09823993 14.5625 47.66796875 C14.9785612 50.83672054 15.15127083 53.80913084 15 57 C14.67 57.33 14.34 57.66 14 58 C13.83333333 60.5 13.83333333 60.5 14 63 C14.33 63.33 14.66 63.66 15 64 C15.23427778 66.01594582 15.41336124 68.038474 15.5625 70.0625 C15.64628906 71.16722656 15.73007813 72.27195312 15.81640625 73.41015625 C15.87699219 74.26480469 15.93757813 75.11945313 16 76 C17.65 76.66 19.3 77.32 21 78 C21 79.32 21 80.64 21 82 C19.906875 82.309375 18.81375 82.61875 17.6875 82.9375 C15.20980828 83.98652271 14.21746156 84.59225958 12.9375 86.9921875 C12.18759293 89.3122125 11.57225665 91.63037387 11 94 C10.33333333 96 9.66666667 98 9 100 C8.54625 99.525625 8.0925 99.05125 7.625 98.5625 C6.06741796 96.90972192 6.06741796 96.90972192 4 96 C4.474375 95.608125 4.94875 95.21625 5.4375 94.8125 C8.59072963 91.15475363 8.10742793 86.61940106 8 82 C4.93449408 82.98958997 4.93449408 82.98958997 2 85 C0.85745925 89.32533283 0.89127425 93.54224418 1 98 C0.34 98 -0.32 98 -1 98 C-1 93.71 -1 89.42 -1 85 C-1.66 85 -2.32 85 -3 85 C-3.2475 86.19625 -3.495 87.3925 -3.75 88.625 C-4.65232853 92.76013147 -5.82720502 96.76522446 -7.0625 100.8125 C-8.70974485 106.42285794 -9.51872908 111.64123949 -9.7265625 117.4765625 C-10.01407171 120.12986175 -10.77068516 121.6643018 -12 124 C-12.44500285 126.12593058 -12.44500285 126.12593058 -12.625 128.25 C-12.810625 130.10625 -12.810625 130.10625 -13 132 C-10.93105065 130.00239373 -9.0814519 128.11729074 -7.4375 125.75 C-6.963125 125.1725 -6.48875 124.595 -6 124 C-5.01 124 -4.02 124 -3 124 C-2.67 122.68 -2.34 121.36 -2 120 C-0.60848348 124.79300133 -1.31337311 129.15135782 -2 134 C-2.495 133.01 -2.495 133.01 -3 132 C-5.47627099 132.63921965 -5.47627099 132.63921965 -8 134 C-9.36078035 136.52372901 -9.36078035 136.52372901 -10 139 C-7.69 139 -5.38 139 -3 139 C-3 139.99 -3 140.98 -3 142 C-11.415 142.99 -11.415 142.99 -20 144 C-20 141.69 -20 139.38 -20 137 C-20.66 137 -21.32 137 -22 137 C-22.103125 137.598125 -22.20625 138.19625 -22.3125 138.8125 C-23.08876455 141.28243264 -24.07088921 142.32251235 -26 144 C-25.6596875 143.195625 -25.6596875 143.195625 -25.3125 142.375 C-24.74852584 139.80285593 -24.74852584 139.80285593 -26.5 137 C-28 134 -28 134 -27.6875 131.625 C-27.460625 131.08875 -27.23375 130.5525 -27 130 C-26.360625 129.87625 -25.72125 129.7525 -25.0625 129.625 C-24.381875 129.41875 -23.70125 129.2125 -23 129 C-21.49843126 125.99686252 -21.90718796 123.20932478 -21.9375 119.875 C-21.94652344 118.59367187 -21.95554687 117.31234375 -21.96484375 115.9921875 C-21.97644531 115.00476563 -21.98804687 114.01734375 -22 113 C-21.01 113 -20.02 113 -19 113 C-19 116.96 -19 120.92 -19 125 C-18.01 125 -17.02 125 -16 125 C-16.33 124.34 -16.66 123.68 -17 123 C-17.039992 121.00039988 -17.04346799 118.99952758 -17 117 C-15.02 116.505 -15.02 116.505 -13 116 C-13.66 115.67 -14.32 115.34 -15 115 C-15 112 -15 109 -15 106 C-13.515 105.505 -13.515 105.505 -12 105 C-11.855625 104.0925 -11.71125 103.185 -11.5625 102.25 C-11.13590527 99.78523044 -10.64925779 97.41152893 -10 95 C-10.33 95 -10.66 95 -11 95 C-11.26307043 90.65933795 -10.24922176 87.13804708 -9 83 C-9 82.34 -9 81.68 -9 81 C-11.52985528 81.32386813 -11.52985528 81.32386813 -14 83 C-15.07001562 85.94119871 -15.57343918 88.90584243 -16 92 C-16.33 91.34 -16.66 90.68 -17 90 C-17.66 90 -18.32 90 -19 90 C-19 89.34 -19 88.68 -19 88 C-18.34 88 -17.68 88 -17 88 C-17 86.35 -17 84.7 -17 83 C-18.68217238 86.5553787 -20.34294533 90.12035394 -22 93.6875 C-22.47695312 94.69490234 -22.95390625 95.70230469 -23.4453125 96.74023438 C-23.89648438 97.71669922 -24.34765625 98.69316406 -24.8125 99.69921875 C-25.23144531 100.59471436 -25.65039062 101.49020996 -26.08203125 102.4128418 C-27.04311246 105.12150605 -27.17968301 107.14977818 -27 110 C-26.01 109.01 -26.01 109.01 -25 108 C-25 109.65 -25 111.3 -25 113 C-25.99 113 -26.98 113 -28 113 C-30.24102559 109.63846162 -30.52004002 108.90030015 -30 105 C-28.83138919 102.24713845 -27.40089467 99.64033029 -26 97 C-23.80594888 92.62718732 -21.89923209 88.66282941 -21.4375 83.75 C-20.98828639 79.89959763 -20.17275109 78.12876157 -18 75 C-17.31903578 73.67391178 -16.64669414 72.34313399 -16 71 C-15.67 71.99 -15.34 72.98 -15 74 C-14.34 74.33 -13.68 74.66 -13 75 C-13.020625 74.236875 -13.04125 73.47375 -13.0625 72.6875 C-13 70 -13 70 -12 67 C-13.32 66.67 -14.64 66.34 -16 66 C-16 63 -16 63 -15 61 C-14.58472799 56.32818984 -15.30006009 53.82491487 -18 50 C-19.23267348 51.00836062 -19.23267348 51.00836062 -19.09765625 53.06640625 C-19.08605469 53.89011719 -19.07445313 54.71382812 -19.0625 55.5625 C-19.05347656 56.38878906 -19.04445313 57.21507812 -19.03515625 58.06640625 C-19.02355469 58.70449219 -19.01195313 59.34257813 -19 60 C-20.70840281 58.36587557 -21.93453047 57.13093906 -23 55 C-23.99 54.67 -24.98 54.34 -26 54 C-24.25951757 60.18776147 -24.25951757 60.18776147 -19.8125 64.5 C-18.884375 64.995 -17.95625 65.49 -17 66 C-17.33 66.99 -17.66 67.98 -18 69 C-19.1055189 68.06409496 -20.20935453 67.12620142 -21.3125 66.1875 C-21.92738281 65.66542969 -22.54226562 65.14335938 -23.17578125 64.60546875 C-26.4174882 61.75248897 -28.01288469 60.23049417 -29 56 C-29.66 55.67 -30.32 55.34 -31 55 C-31 52.36 -31 49.72 -31 47 C-29.515 46.505 -29.515 46.505 -28 46 C-27.67 45.01 -27.34 44.02 -27 43 C-26.01 42.34 -25.02 41.68 -24 41 C-23.67 41.99 -23.34 42.98 -23 44 C-24.98 44.495 -24.98 44.495 -27 45 C-27 45.66 -27 46.32 -27 47 C-25.68 47.33 -24.36 47.66 -23 48 C-22.34 43.71 -21.68 39.42 -21 35 C-20.67 35 -20.34 35 -20 35 C-19.67 37.97 -19.34 40.94 -19 44 C-18.67 41.36 -18.34 38.72 -18 36 C-17.34 36 -16.68 36 -16 36 C-15.34 35.01 -14.68 34.02 -14 33 C-14 36.3 -14 39.6 -14 43 C-13.01 42.505 -13.01 42.505 -12 42 C-11.01 44.64 -10.02 47.28 -9 50 C-10.485 50.495 -10.485 50.495 -12 51 C-11.34 51.66 -10.68 52.32 -10 53 C-11.485 53.495 -11.485 53.495 -13 54 C-13 54.66 -13 55.32 -13 56 C-11.515 56.495 -11.515 56.495 -10 57 C-10.309375 57.763125 -10.61875 58.52625 -10.9375 59.3125 C-11.67893593 61.18789677 -12.36228217 63.08684652 -13 65 C-11.06890419 65.04289755 -11.06890419 65.04289755 -9 64 C-7.18721244 60.5039097 -6 57.96018245 -6 54 C-5.484375 53.195625 -4.96875 52.39125 -4.4375 51.5625 C-2.74414176 49.14608941 -2.74414176 49.14608941 -3.3125 46.6875 C-3.539375 46.130625 -3.76625 45.57375 -4 45 C-4.99 45 -5.98 45 -7 45 C-7.66 44.01 -8.32 43.02 -9 42 C-8.34 42 -7.68 42 -7 42 C-6.34 41.01 -5.68 40.02 -5 39 C-4.34 39.99 -3.68 40.98 -3 42 C-2.67 40.35 -2.34 38.7 -2 37 C-1.01 37.66 -0.02 38.32 1 39 C4.08405139 37.38736729 4.08405139 37.38736729 4.625 35.125 C4.810625 34.073125 4.810625 34.073125 5 33 C5.33333333 31.66666667 5.66666667 30.33333333 6 29 C4.68 28.34 3.36 27.68 2 27 C1.34 27.99 0.68 28.98 0 30 C0.99 30.33 1.98 30.66 3 31 C3 32.65 3 34.3 3 36 C2.01 36 1.02 36 0 36 C0 35.34 0 34.68 0 34 C-0.66 34 -1.32 34 -2 34 C-2.33 34.66 -2.66 35.32 -3 36 C-6 30.25 -6 30.25 -6 28 C-5.34 27.67 -4.68 27.34 -4 27 C-4.25561323 24.6568787 -4.59270772 22.32156597 -5 20 C-5.66 19.67 -6.32 19.34 -7 19 C-7 18.34 -7 17.68 -7 17 C-4.69 17.33 -2.38 17.66 0 18 C0 17.34 0 16.68 0 16 C-0.66 15.67 -1.32 15.34 -2 15 C-1.34 14.34 -0.68 13.68 0 13 C0.33 12.01 0.66 11.02 1 10 C-0.32 10.33 -1.64 10.66 -3 11 C-3.33 10.01 -3.66 9.02 -4 8 C-3.34 8 -2.68 8 -2 8 C-2 7.34 -2 6.68 -2 6 C-5.3 6.33 -8.6 6.66 -12 7 C-12.33 9.31 -12.66 11.62 -13 14 C-14.9375 14.5625 -14.9375 14.5625 -17 15 C-17.33 14.67 -17.66 14.34 -18 14 C-17.64833837 6.84954683 -17.64833837 6.84954683 -15.1875 3.625 C-10.33396572 0.01951739 -6.00036066 -1.0822079 0 0 Z " fill="#0F0F0F" transform="translate(94,22)"/>
<path d="M0 0 C1.32 0.66 2.64 1.32 4 2 C3.57847656 2.68964844 3.15695313 3.37929687 2.72265625 4.08984375 C-0.86934266 10.25117835 -2.76584191 14.85817812 -3 22 C-3.66 22 -4.32 22 -5 22 C-4.60167969 23.39798828 -4.60167969 23.39798828 -4.1953125 24.82421875 C-0.99061463 36.29509856 1 47.00294218 1 59 C-20.45 59 -41.9 59 -64 59 C-63.34 57.68 -62.68 56.36 -62 55 C-59 54.375 -59 54.375 -57.15234375 54.21484375 C-54.57796026 53.95787262 -52.09612681 53.45860055 -49.5625 52.9375 C-48.69753906 52.76089844 -47.83257812 52.58429688 -46.94140625 52.40234375 C-45.98041016 52.20318359 -45.98041016 52.20318359 -45 52 C-45 53.65 -45 55.3 -45 57 C-38.4 57 -31.8 57 -25 57 C-25 54.69 -25 52.38 -25 50 C-24.67 49.67 -24.34 49.34 -24 49 C-24.66 48.34 -25.32 47.68 -26 47 C-24.02 46.505 -24.02 46.505 -22 46 C-21.505 47.98 -21.505 47.98 -21 50 C-19.01508358 49.73323796 -19.01508358 49.73323796 -17 49 C-16.67 48.01 -16.34 47.02 -16 46 C-16.928125 45.9071875 -16.928125 45.9071875 -17.875 45.8125 C-20 45 -20 45 -21.25 42.4375 C-21.4975 41.633125 -21.745 40.82875 -22 40 C-21.505 41.98 -21.505 41.98 -21 44 C-22.32 43.67 -23.64 43.34 -25 43 C-25.06058594 42.22914063 -25.12117188 41.45828125 -25.18359375 40.6640625 C-25.26738281 39.66117188 -25.35117188 38.65828125 -25.4375 37.625 C-25.51871094 36.62726563 -25.59992188 35.62953125 -25.68359375 34.6015625 C-25.84965626 32.02072387 -25.84965626 32.02072387 -27 30 C-26.01 30 -25.02 30 -24 30 C-24 27.03 -24 24.06 -24 21 C-22.68 21 -21.36 21 -20 21 C-19.505 14.565 -19.505 14.565 -19 8 C-18.34 8.33 -17.68 8.66 -17 9 C-17 23 -17 23 -17.03515625 25.0703125 C-17.19845735 29.16485019 -17.19845735 29.16485019 -16 33 C-15.86722656 32.19175781 -15.73445313 31.38351563 -15.59765625 30.55078125 C-15.42105469 29.48214844 -15.24445313 28.41351563 -15.0625 27.3125 C-14.88847656 26.25675781 -14.71445313 25.20101562 -14.53515625 24.11328125 C-14.06832879 21.39750396 -13.55577384 18.69875765 -13 16 C-13.99 16.495 -13.99 16.495 -15 17 C-15.06058594 16.38511719 -15.12117188 15.77023438 -15.18359375 15.13671875 C-15.26738281 14.32847656 -15.35117188 13.52023438 -15.4375 12.6875 C-15.51871094 11.88699219 -15.59992188 11.08648437 -15.68359375 10.26171875 C-15.95265693 7.83912821 -15.95265693 7.83912821 -17 5 C-13.06225823 4.63369844 -11.43460229 4.69766797 -8.125 7 C-7.42375 7.66 -6.7225 8.32 -6 9 C-4.02 6.03 -2.04 3.06 0 0 Z " fill="#151515" transform="translate(122,115)"/>
<path d="M0 0 C2.9375 2.375 2.9375 2.375 5 5 C5.66 5.66 6.32 6.32 7 7 C7 8.32 7 9.64 7 11 C6.38125 11.185625 5.7625 11.37125 5.125 11.5625 C1.94966268 13.7105223 1.88956051 16.37821791 1 20 C0.34 20.99 -0.32 21.98 -1 23 C-0.38125 23.28875 0.2375 23.5775 0.875 23.875 C3 25 3 25 5 27 C7.47326954 27.14091482 7.47326954 27.14091482 10 26 C12.33414647 23.04150073 12.33414647 23.04150073 14 20 C15.05543251 23.18769143 14.97424908 24.94786631 13.75 28.0625 C13.37101562 29.06990234 13.37101562 29.06990234 12.984375 30.09765625 C11.51943801 32.92870512 9.84216189 34.57891905 7 36 C5.79555255 40.59879937 6.22597539 44.35585234 7 49 C7 50.32 7 51.64 7 53 C7.66 53 8.32 53 9 53 C9.06058594 53.7734375 9.12117188 54.546875 9.18359375 55.34375 C9.44384814 65.4482343 9.44384814 65.4482343 12 75 C11.34 75.99 10.68 76.98 10 78 C9.01 77.505 9.01 77.505 8 77 C7.34 76.835 6.68 76.67 6 76.5 C4 76 4 76 2 75 C0.43642657 71.30428099 1.33462025 67.84441631 2 64 C3.98 63.505 3.98 63.505 6 63 C6 62.34 6 61.68 6 61 C5.01 60.67 4.02 60.34 3 60 C2.3125 57.9375 2.3125 57.9375 2 56 C2.99 56 3.98 56 5 56 C5.33 54.35 5.66 52.7 6 51 C4.68 51 3.36 51 2 51 C1.90912109 52.26457031 1.90912109 52.26457031 1.81640625 53.5546875 C1.73261719 54.65039062 1.64882812 55.74609375 1.5625 56.875 C1.48128906 57.96554688 1.40007812 59.05609375 1.31640625 60.1796875 C1 63 1 63 0 65 C-0.66 65 -1.32 65 -2 65 C-2.33 64.34 -2.66 63.68 -3 63 C-3.33 64.32 -3.66 65.64 -4 67 C-3.67 66.67 -3.34 66.34 -3 66 C-2.34 66 -1.68 66 -1 66 C-1.48578543 69.12290635 -1.9986012 71.99580359 -3 75 C-4.98 74.34 -6.96 73.68 -9 73 C-9.66 73.99 -10.32 74.98 -11 76 C-11.66 76 -12.32 76 -13 76 C-13.07427838 72.65747276 -13.06546953 70.1964086 -12 67 C-13.32 66.67 -14.64 66.34 -16 66 C-16 63 -16 63 -15 61 C-14.58472799 56.32818984 -15.30006009 53.82491487 -18 50 C-19.23267348 51.00836062 -19.23267348 51.00836062 -19.09765625 53.06640625 C-19.08605469 53.89011719 -19.07445313 54.71382812 -19.0625 55.5625 C-19.05347656 56.38878906 -19.04445313 57.21507812 -19.03515625 58.06640625 C-19.02355469 58.70449219 -19.01195313 59.34257813 -19 60 C-20.70840281 58.36587557 -21.93453047 57.13093906 -23 55 C-23.99 54.67 -24.98 54.34 -26 54 C-24.25951757 60.18776147 -24.25951757 60.18776147 -19.8125 64.5 C-18.884375 64.995 -17.95625 65.49 -17 66 C-17.33 66.99 -17.66 67.98 -18 69 C-19.1055189 68.06409496 -20.20935453 67.12620142 -21.3125 66.1875 C-21.92738281 65.66542969 -22.54226562 65.14335938 -23.17578125 64.60546875 C-26.4174882 61.75248897 -28.01288469 60.23049417 -29 56 C-29.66 55.67 -30.32 55.34 -31 55 C-31 52.36 -31 49.72 -31 47 C-29.515 46.505 -29.515 46.505 -28 46 C-27.67 45.01 -27.34 44.02 -27 43 C-26.01 42.34 -25.02 41.68 -24 41 C-23.67 41.99 -23.34 42.98 -23 44 C-24.98 44.495 -24.98 44.495 -27 45 C-27 45.66 -27 46.32 -27 47 C-25.68 47.33 -24.36 47.66 -23 48 C-22.34 43.71 -21.68 39.42 -21 35 C-20.67 35 -20.34 35 -20 35 C-19.67 37.97 -19.34 40.94 -19 44 C-18.67 41.36 -18.34 38.72 -18 36 C-17.34 36 -16.68 36 -16 36 C-15.34 35.01 -14.68 34.02 -14 33 C-14 36.3 -14 39.6 -14 43 C-13.01 42.505 -13.01 42.505 -12 42 C-11.01 44.64 -10.02 47.28 -9 50 C-10.485 50.495 -10.485 50.495 -12 51 C-11.34 51.66 -10.68 52.32 -10 53 C-11.485 53.495 -11.485 53.495 -13 54 C-13 54.66 -13 55.32 -13 56 C-11.515 56.495 -11.515 56.495 -10 57 C-10.309375 57.763125 -10.61875 58.52625 -10.9375 59.3125 C-11.67893593 61.18789677 -12.36228217 63.08684652 -13 65 C-11.06890419 65.04289755 -11.06890419 65.04289755 -9 64 C-7.18721244 60.5039097 -6 57.96018245 -6 54 C-5.484375 53.195625 -4.96875 52.39125 -4.4375 51.5625 C-2.74414176 49.14608941 -2.74414176 49.14608941 -3.3125 46.6875 C-3.539375 46.130625 -3.76625 45.57375 -4 45 C-4.99 45 -5.98 45 -7 45 C-7.66 44.01 -8.32 43.02 -9 42 C-8.34 42 -7.68 42 -7 42 C-6.34 41.01 -5.68 40.02 -5 39 C-4.34 39.99 -3.68 40.98 -3 42 C-2.67 40.35 -2.34 38.7 -2 37 C-1.01 37.66 -0.02 38.32 1 39 C4.08405139 37.38736729 4.08405139 37.38736729 4.625 35.125 C4.810625 34.073125 4.810625 34.073125 5 33 C5.33333333 31.66666667 5.66666667 30.33333333 6 29 C4.68 28.34 3.36 27.68 2 27 C1.34 27.99 0.68 28.98 0 30 C0.99 30.33 1.98 30.66 3 31 C3 32.65 3 34.3 3 36 C2.01 36 1.02 36 0 36 C0 35.34 0 34.68 0 34 C-0.66 34 -1.32 34 -2 34 C-2.33 34.66 -2.66 35.32 -3 36 C-6 30.25 -6 30.25 -6 28 C-5.34 27.67 -4.68 27.34 -4 27 C-4.25561323 24.6568787 -4.59270772 22.32156597 -5 20 C-5.66 19.67 -6.32 19.34 -7 19 C-7 18.34 -7 17.68 -7 17 C-4.69 17.33 -2.38 17.66 0 18 C0 17.34 0 16.68 0 16 C-0.66 15.67 -1.32 15.34 -2 15 C-1.34 14.34 -0.68 13.68 0 13 C0.33 12.01 0.66 11.02 1 10 C-0.32 10.33 -1.64 10.66 -3 11 C-3.33 10.01 -3.66 9.02 -4 8 C-3.34 8 -2.68 8 -2 8 C-2 7.34 -2 6.68 -2 6 C-5.3 6.33 -8.6 6.66 -12 7 C-12.33 9.31 -12.66 11.62 -13 14 C-14.9375 14.5625 -14.9375 14.5625 -17 15 C-17.33 14.67 -17.66 14.34 -18 14 C-17.64833837 6.84954683 -17.64833837 6.84954683 -15.1875 3.625 C-10.33396572 0.01951739 -6.00036066 -1.0822079 0 0 Z " fill="#767676" transform="translate(94,22)"/>
<path d="M0 0 C1.35384615 7.26153846 1.35384615 7.26153846 -0.4375 11 C-0.953125 11.66 -1.46875 12.32 -2 13 C-1.505 13.495 -1.505 13.495 -1 14 C-0.505 15.485 -0.505 15.485 0 17 C0.66 16.34 1.32 15.68 2 15 C6.57142857 22.28571429 6.57142857 22.28571429 6 27 C6.66 26.34 7.32 25.68 8 25 C7.32692542 30.02518791 6.45601155 34.97164705 5.4375 39.9375 C5.22963867 40.96327148 5.22963867 40.96327148 5.01757812 42.00976562 C4.68016936 43.67353986 4.34034121 45.33682315 4 47 C3.67 47 3.34 47 3 47 C1.45500849 36.08998302 1.45500849 36.08998302 4 31 C3.34 30.67 2.68 30.34 2 30 C2.01160156 29.28972656 2.02320313 28.57945312 2.03515625 27.84765625 C2.04417969 26.92855469 2.05320313 26.00945312 2.0625 25.0625 C2.07410156 24.14597656 2.08570313 23.22945312 2.09765625 22.28515625 C2.25949049 20.03406673 2.25949049 20.03406673 1 19 C1.01160156 19.68707031 1.02320313 20.37414062 1.03515625 21.08203125 C1.04417969 21.98308594 1.05320313 22.88414063 1.0625 23.8125 C1.07410156 24.70582031 1.08570313 25.59914062 1.09765625 26.51953125 C1 29 1 29 0 32 C-0.99 32.33 -1.98 32.66 -3 33 C-3.144375 34.27875 -3.28875 35.5575 -3.4375 36.875 C-3.70642746 39.25692894 -3.92226346 40.84452691 -5 43 C-5.14375422 46.37822416 -5.07536348 48.77390955 -4 52 C-4.495 52.99 -4.495 52.99 -5 54 C-4.01 54 -3.02 54 -2 54 C-2.495 52.02 -2.495 52.02 -3 50 C-1.5 51.3125 -1.5 51.3125 0 53 C0 53.99 0 54.98 0 56 C1.32 56.33 2.64 56.66 4 57 C3.67 58.32 3.34 59.64 3 61 C1.68 61 0.36 61 -1 61 C-1.495 59.02 -1.495 59.02 -2 57 C-2.66 57.66 -3.32 58.32 -4 59 C-3.34 59.66 -2.68 60.32 -2 61 C-2.99 61 -3.98 61 -5 61 C-5 63.31 -5 65.62 -5 68 C-11.6 68 -18.2 68 -25 68 C-25 66.35 -25 64.7 -25 63 C-25.90363281 63.28875 -26.80726562 63.5775 -27.73828125 63.875 C-28.91777344 64.24625 -30.09726563 64.6175 -31.3125 65 C-32.48425781 65.37125 -33.65601562 65.7425 -34.86328125 66.125 C-38 67 -38 67 -41 67 C-41 66.34 -41 65.68 -41 65 C-38.03 64.505 -38.03 64.505 -35 64 C-34.67 63.01 -34.34 62.02 -34 61 C-33 60 -32 59 -31 58 C-30.67 57.01 -30.34 56.02 -30 55 C-29.34 55 -28.68 55 -28 55 C-26.95550089 58.13349732 -27.06576355 58.98968256 -28 62 C-26.2984375 61.505 -26.2984375 61.505 -24.5625 61 C-20.00204151 59.84152933 -15.67838994 59.80506709 -11 60 C-11 59.01 -11 58.02 -11 57 C-13.31 57 -15.62 57 -18 57 C-17.67 55.35 -17.34 53.7 -17 52 C-15.02 51.34 -13.04 50.68 -11 50 C-10.67 47.36 -10.34 44.72 -10 42 C-14.5402233 43.34979612 -15.72936172 44.95234045 -18 49 C-19.30501003 50.03669021 -20.63553172 51.04291898 -22 52 C-21.88512252 50.41590006 -21.75765492 48.83271037 -21.625 47.25 C-21.55539063 46.36828125 -21.48578125 45.4865625 -21.4140625 44.578125 C-21 42 -21 42 -19.97265625 39.97265625 C-18.78134726 37.55654765 -18.83265641 35.87636523 -18.8125 33.1875 C-18.16356015 22.79148363 -14.2091841 12.83633055 -11 3 C-10.34 3 -9.68 3 -9 3 C-9 7.29 -9 11.58 -9 16 C-7.81083492 12.12809532 -7.81083492 12.12809532 -8.25 8.5625 C-8 5 -8 5 -5.6875 2.0625 C-3 0 -3 0 0 0 Z " fill="#595959" transform="translate(102,104)"/>
<path d="M0 0 C0 0.66 0 1.32 0 2 C-0.66 2 -1.32 2 -2 2 C-1.67 2.66 -1.34 3.32 -1 4 C0.32 4 1.64 4 3 4 C3.08226668 7.04386724 2.97608217 9.07175348 2 12 C-0.31 11.67 -2.62 11.34 -5 11 C-5 11.66 -5 12.32 -5 13 C-4.01 13.33 -3.02 13.66 -2 14 C-2 16.31 -2 18.62 -2 21 C-1.34 21.33 -0.68 21.66 0 22 C-1.32 22 -2.64 22 -4 22 C-3.01 23.98 -2.02 25.96 -1 28 C-0.01 28 0.98 28 2 28 C2 28.66 2 29.32 2 30 C2.99 30 3.98 30 5 30 C5 28.35 5 26.7 5 25 C3.68 24.67 2.36 24.34 1 24 C1.66 23.67 2.32 23.34 3 23 C3.33 22.01 3.66 21.02 4 20 C6.015625 21.17578125 6.015625 21.17578125 8 23 C8.171875 25.48046875 8.171875 25.48046875 7.75 28.1875 C7.62109375 29.08855469 7.4921875 29.98960938 7.359375 30.91796875 C7.24078125 31.60503906 7.1221875 32.29210938 7 33 C5.68 33 4.36 33 3 33 C2.67 33.99 2.34 34.98 2 36 C1.67 35.01 1.34 34.02 1 33 C0.34 34.32 -0.32 35.64 -1 37 C-1.66 36.01 -2.32 35.02 -3 34 C-3.66 34.99 -4.32 35.98 -5 37 C-4.34 37.66 -3.68 38.32 -3 39 C-2.01 38.505 -2.01 38.505 -1 38 C-0.25 40.0625 -0.25 40.0625 0 43 C-0.859375 44.8203125 -0.859375 44.8203125 -2 46.6875 C-2.66 47.780625 -3.32 48.87375 -4 50 C-3.67 50.66 -3.34 51.32 -3 52 C-4.21958756 54.67371119 -5.18298261 56.75412136 -7 59 C-9.75 59.9375 -9.75 59.9375 -12 60 C-10.5 55.5 -10.5 55.5 -9 51 C-9.99 50.01 -10.98 49.02 -12 48 C-11.67 47.34 -11.34 46.68 -11 46 C-11 45.67 -11 45.34 -11 45 C-10.67 44.34 -10.34 43.68 -10 43 C-9.34 43 -8.68 43 -8 43 C-8.66 41.68 -9.32 40.36 -10 39 C-10.99 39.495 -10.99 39.495 -12 40 C-12.33 37.03 -12.66 34.06 -13 31 C-13.66 31 -14.32 31 -15 31 C-15.66 34.63 -16.32 38.26 -17 42 C-17.33 42 -17.66 42 -18 42 C-18.33 40.02 -18.66 38.04 -19 36 C-19.66 37.98 -20.32 39.96 -21 42 C-20.34 42.33 -19.68 42.66 -19 43 C-22.96 42.505 -22.96 42.505 -27 42 C-26.01 41.505 -26.01 41.505 -25 41 C-25 40.34 -25 39.68 -25 39 C-23.02 38.505 -23.02 38.505 -21 38 C-21.33 37.34 -21.66 36.68 -22 36 C-22.99 36.66 -23.98 37.32 -25 38 C-26.53800826 32.69292213 -24.980993 29.99936507 -22.46484375 25.30859375 C-19.82998251 21.15605243 -16.41916051 18.96407134 -12 17 C-12.16757813 16.44570313 -12.33515625 15.89140625 -12.5078125 15.3203125 C-12.71148437 14.59585938 -12.91515625 13.87140625 -13.125 13.125 C-13.33382812 12.40570313 -13.54265625 11.68640625 -13.7578125 10.9453125 C-13.83773437 10.30335937 -13.91765625 9.66140625 -14 9 C-13.34 8.34 -12.68 7.68 -12 7 C-11.6278958 5.67696283 -11.29369827 4.34262065 -11 3 C-8.89427904 -1.21144191 -4.11694326 -0.07767817 0 0 Z " fill="#F5F5F5" transform="translate(92,28)"/>
<path d="M0 0 C-0.14168137 1.43791516 -0.28851043 2.8753237 -0.4375 4.3125 C-0.51871094 5.11300781 -0.59992188 5.91351563 -0.68359375 6.73828125 C-1 9 -1 9 -2 12 C-2.26829061 15.02785119 -2.44436465 18.05536757 -2.62109375 21.08984375 C-2.98972053 23.92104939 -3.68118246 25.52144408 -5 28 C-5.44500285 30.12593058 -5.44500285 30.12593058 -5.625 32.25 C-5.74875 33.4875 -5.8725 34.725 -6 36 C-3.93105065 34.00239373 -2.0814519 32.11729074 -0.4375 29.75 C0.036875 29.1725 0.51125 28.595 1 28 C1.99 28 2.98 28 4 28 C4.33 26.68 4.66 25.36 5 24 C6.39151652 28.79300133 5.68662689 33.15135782 5 38 C4.67 37.34 4.34 36.68 4 36 C1.52372901 36.63921965 1.52372901 36.63921965 -1 38 C-2.36078035 40.52372901 -2.36078035 40.52372901 -3 43 C-0.69 43 1.62 43 4 43 C4 43.99 4 44.98 4 46 C-1.61 46.66 -7.22 47.32 -13 48 C-13 45.69 -13 43.38 -13 41 C-13.66 41 -14.32 41 -15 41 C-15.103125 41.598125 -15.20625 42.19625 -15.3125 42.8125 C-16.08876455 45.28243264 -17.07088921 46.32251235 -19 48 C-18.773125 47.46375 -18.54625 46.9275 -18.3125 46.375 C-17.74852584 43.80285593 -17.74852584 43.80285593 -19.5 41 C-21 38 -21 38 -20.6875 35.625 C-20.460625 35.08875 -20.23375 34.5525 -20 34 C-19.360625 33.87625 -18.72125 33.7525 -18.0625 33.625 C-17.381875 33.41875 -16.70125 33.2125 -16 33 C-14.49843126 29.99686252 -14.90718796 27.20932478 -14.9375 23.875 C-14.94652344 22.59367187 -14.95554687 21.31234375 -14.96484375 19.9921875 C-14.97644531 19.00476563 -14.98804687 18.01734375 -15 17 C-14.01 17 -13.02 17 -12 17 C-12 20.96 -12 24.92 -12 29 C-11.01 29 -10.02 29 -9 29 C-9.33 28.34 -9.66 27.68 -10 27 C-10.039992 25.00039988 -10.04346799 22.99952758 -10 21 C-8.68 20.67 -7.36 20.34 -6 20 C-6.66 19.67 -7.32 19.34 -8 19 C-8 16 -8 13 -8 10 C-7.01 9.67 -6.02 9.34 -5 9 C-4.896875 8.071875 -4.79375 7.14375 -4.6875 6.1875 C-4.13812165 3.64038221 -3.2972453 0 0 0 Z " fill="#111111" transform="translate(87,118)"/>
<path d="M0 0 C1.98 0.66 3.96 1.32 6 2 C6.125 8.75 6.125 8.75 5 11 C4.85624578 14.37822416 4.92463652 16.77390955 6 20 C5.67 20.66 5.34 21.32 5 22 C5.99 22 6.98 22 8 22 C7.505 20.02 7.505 20.02 7 18 C8.5 19.3125 8.5 19.3125 10 21 C10 21.99 10 22.98 10 24 C11.32 24.33 12.64 24.66 14 25 C13.67 26.32 13.34 27.64 13 29 C11.68 29 10.36 29 9 29 C8.505 27.02 8.505 27.02 8 25 C7.34 25.66 6.68 26.32 6 27 C6.66 27.66 7.32 28.32 8 29 C7.01 29 6.02 29 5 29 C5 31.31 5 33.62 5 36 C-1.6 36 -8.2 36 -15 36 C-15 34.35 -15 32.7 -15 31 C-15.90363281 31.28875 -16.80726562 31.5775 -17.73828125 31.875 C-18.91777344 32.24625 -20.09726563 32.6175 -21.3125 33 C-22.48425781 33.37125 -23.65601562 33.7425 -24.86328125 34.125 C-28 35 -28 35 -31 35 C-31 34.34 -31 33.68 -31 33 C-28.03 32.505 -28.03 32.505 -25 32 C-24.67 31.01 -24.34 30.02 -24 29 C-23 28 -22 27 -21 26 C-20.67 25.01 -20.34 24.02 -20 23 C-19.34 23 -18.68 23 -18 23 C-16.95550089 26.13349732 -17.06576355 26.98968256 -18 30 C-16.865625 29.67 -15.73125 29.34 -14.5625 29 C-10.00204151 27.84152933 -5.67838994 27.80506709 -1 28 C-1 27.01 -1 26.02 -1 25 C-3.31 25 -5.62 25 -8 25 C-7.67 23.35 -7.34 21.7 -7 20 C-5.02 19.34 -3.04 18.68 -1 18 C-0.10395632 11.95170514 0.11269443 6.1105424 0 0 Z " fill="#676767" transform="translate(92,136)"/>
<path d="M0 0 C0 0.66 0 1.32 0 2 C-0.66 2 -1.32 2 -2 2 C-1.67 2.66 -1.34 3.32 -1 4 C0.32 4 1.64 4 3 4 C3.08226668 7.04386724 2.97608217 9.07175348 2 12 C-0.31 11.67 -2.62 11.34 -5 11 C-5 11.66 -5 12.32 -5 13 C-4.01 13.33 -3.02 13.66 -2 14 C-2 16.31 -2 18.62 -2 21 C-1.34 21.33 -0.68 21.66 0 22 C-8.20923771 23.32349366 -8.20923771 23.32349366 -11.75 21.875 C-14.08912953 20.6681695 -14.08912953 20.6681695 -16.75 22.125 C-19.14199636 24.1183303 -19.68611748 24.96580233 -20 28 C-19.01 27.67 -18.02 27.34 -17 27 C-17 27.66 -17 28.32 -17 29 C-16.34 29 -15.68 29 -15 29 C-14.67 28.34 -14.34 27.68 -14 27 C-13.67 27.99 -13.34 28.98 -13 30 C-13.66 30.33 -14.32 30.66 -15 31 C-15.69093896 33.57951874 -15.69093896 33.57951874 -16.125 36.5625 C-16.29257813 37.57441406 -16.46015625 38.58632812 -16.6328125 39.62890625 C-16.75398438 40.41136719 -16.87515625 41.19382813 -17 42 C-17.33 42 -17.66 42 -18 42 C-18.33 40.02 -18.66 38.04 -19 36 C-19.66 37.98 -20.32 39.96 -21 42 C-20.34 42.33 -19.68 42.66 -19 43 C-22.96 42.505 -22.96 42.505 -27 42 C-26.01 41.505 -26.01 41.505 -25 41 C-25 40.34 -25 39.68 -25 39 C-23.02 38.505 -23.02 38.505 -21 38 C-21.33 37.34 -21.66 36.68 -22 36 C-22.99 36.66 -23.98 37.32 -25 38 C-26.53800826 32.69292213 -24.980993 29.99936507 -22.46484375 25.30859375 C-19.82998251 21.15605243 -16.41916051 18.96407134 -12 17 C-12.16757813 16.44570313 -12.33515625 15.89140625 -12.5078125 15.3203125 C-12.71148437 14.59585938 -12.91515625 13.87140625 -13.125 13.125 C-13.33382812 12.40570313 -13.54265625 11.68640625 -13.7578125 10.9453125 C-13.83773437 10.30335937 -13.91765625 9.66140625 -14 9 C-13.34 8.34 -12.68 7.68 -12 7 C-11.6278958 5.67696283 -11.29369827 4.34262065 -11 3 C-8.89427904 -1.21144191 -4.11694326 -0.07767817 0 0 Z " fill="#545454" transform="translate(92,28)"/>
<path d="M0 0 C0.495 2.475 0.495 2.475 1 5 C2.50240234 4.98259766 2.50240234 4.98259766 4.03515625 4.96484375 C5.37760228 4.95545602 6.72005036 4.94635688 8.0625 4.9375 C9.37347656 4.92589844 10.68445313 4.91429687 12.03515625 4.90234375 C15.8163519 4.99547665 19.27920707 5.38551274 23 6 C23 8.31 23 10.62 23 13 C1.55 13 -19.9 13 -42 13 C-41.34 11.68 -40.68 10.36 -40 9 C-37 8.375 -37 8.375 -35.15234375 8.21484375 C-32.57796026 7.95787262 -30.09612681 7.45860055 -27.5625 6.9375 C-26.26505859 6.67259766 -26.26505859 6.67259766 -24.94140625 6.40234375 C-24.30074219 6.26957031 -23.66007812 6.13679687 -23 6 C-23 7.65 -23 9.3 -23 11 C-16.4 11 -9.8 11 -3 11 C-3 8.69 -3 6.38 -3 4 C-2.67 3.67 -2.34 3.34 -2 3 C-2.66 2.34 -3.32 1.68 -4 1 C-2 0 -2 0 0 0 Z " fill="#060606" transform="translate(100,161)"/>
<path d="M0 0 C2.9375 2.375 2.9375 2.375 5 5 C5.66 5.66 6.32 6.32 7 7 C7 8.32 7 9.64 7 11 C6.38125 11.185625 5.7625 11.37125 5.125 11.5625 C1.94966268 13.7105223 1.88956051 16.37821791 1 20 C0.34 20.99 -0.32 21.98 -1 23 C-0.443125 23.268125 0.11375 23.53625 0.6875 23.8125 C3.19712523 25.10122647 5.59334236 26.52926478 8 28 C7.38461538 33.53846154 7.38461538 33.53846154 5.4375 35.875 C4.963125 36.24625 4.48875 36.6175 4 37 C4.66666667 34.33333333 5.33333333 31.66666667 6 29 C4.68 28.34 3.36 27.68 2 27 C1.34 27.99 0.68 28.98 0 30 C0.99 30.33 1.98 30.66 3 31 C3 32.65 3 34.3 3 36 C2.01 36 1.02 36 0 36 C0 35.34 0 34.68 0 34 C-0.66 34 -1.32 34 -2 34 C-2.33 34.66 -2.66 35.32 -3 36 C-6 30.25 -6 30.25 -6 28 C-5.34 27.67 -4.68 27.34 -4 27 C-4.25561323 24.6568787 -4.59270772 22.32156597 -5 20 C-5.66 19.67 -6.32 19.34 -7 19 C-7 18.34 -7 17.68 -7 17 C-4.69 17.33 -2.38 17.66 0 18 C0 17.34 0 16.68 0 16 C-0.66 15.67 -1.32 15.34 -2 15 C-1.34 14.34 -0.68 13.68 0 13 C0.33 12.01 0.66 11.02 1 10 C-0.32 10.33 -1.64 10.66 -3 11 C-3.33 10.01 -3.66 9.02 -4 8 C-3.34 8 -2.68 8 -2 8 C-2 7.34 -2 6.68 -2 6 C-5.3 6.33 -8.6 6.66 -12 7 C-12.33 9.31 -12.66 11.62 -13 14 C-14.9375 14.5625 -14.9375 14.5625 -17 15 C-17.33 14.67 -17.66 14.34 -18 14 C-17.64833837 6.84954683 -17.64833837 6.84954683 -15.1875 3.625 C-10.33396572 0.01951739 -6.00036066 -1.0822079 0 0 Z " fill="#212121" transform="translate(94,22)"/>
<path d="M0 0 C1.04449911 3.13349732 0.93423645 3.98968256 0 7 C-0.66 7 -1.32 7 -2 7 C-2 7.66 -2 8.32 -2 9 C-1.34 9 -0.68 9 0 9 C0.15855469 8.43410156 0.31710938 7.86820312 0.48046875 7.28515625 C1.18581705 5.06779058 1.89153152 3.04806871 3 1 C5.6875 0 5.6875 0 8 0 C9 3 9 3 8 5.75 C6.7391254 8.98602458 6.7391254 8.98602458 7.5625 12.375 C8.14463142 17.1983746 7.03837902 19.62125989 5 24 C4.34 24.33 3.68 24.66 3 25 C2.67 25.66 2.34 26.32 2 27 C2.33 27.33 2.66 27.66 3 28 C2.71325582 30.00720923 2.38133299 32.0085944 2 34 C3.32 34.33 4.64 34.66 6 35 C3.03 35.495 3.03 35.495 0 36 C0.33 38.64 0.66 41.28 1 44 C0.01 44 -0.98 44 -2 44 C-3.2398524 29.27675277 -3.2398524 29.27675277 -3 24 C-2.67 23.67 -2.34 23.34 -2 23 C-1.92773498 21.14712498 -1.9161878 19.29166122 -1.9375 17.4375 C-1.958125 15.643125 -1.97875 13.84875 -2 12 C-3.65 16.95 -5.3 21.9 -7 27 C-7.66 27 -8.32 27 -9 27 C-9.33 27.99 -9.66 28.98 -10 30 C-10.33 29.67 -10.66 29.34 -11 29 C-10.71087459 22.20088946 -7.81036818 16.63622543 -4.9375 10.5625 C-4.22883789 9.03592773 -4.22883789 9.03592773 -3.50585938 7.47851562 C-2.34538324 4.98173363 -1.17661697 2.48920564 0 0 Z " fill="#5B5B5B" transform="translate(77,103)"/>
<path d="M0 0 C1.04005702 3.38018531 1.08004482 6.4780279 1 10 C1.66 9.67 2.32 9.34 3 9 C3.99 11.64 4.98 14.28 6 17 C5.01 17.33 4.02 17.66 3 18 C3.66 18.66 4.32 19.32 5 20 C4.01 20.33 3.02 20.66 2 21 C2 21.66 2 22.32 2 23 C2.99 23.33 3.98 23.66 5 24 C3.25 28.875 3.25 28.875 1 30 C0.87882812 29.31292969 0.75765625 28.62585938 0.6328125 27.91796875 C0.46523437 27.01691406 0.29765625 26.11585937 0.125 25.1875 C-0.03742188 24.29417969 -0.19984375 23.40085937 -0.3671875 22.48046875 C-0.91188449 19.77272154 -0.91188449 19.77272154 -3 17 C-4.23267348 18.00836062 -4.23267348 18.00836062 -4.09765625 20.06640625 C-4.08605469 20.89011719 -4.07445313 21.71382812 -4.0625 22.5625 C-4.05347656 23.38878906 -4.04445313 24.21507813 -4.03515625 25.06640625 C-4.02355469 25.70449219 -4.01195313 26.34257813 -4 27 C-5.70840281 25.36587557 -6.93453047 24.13093906 -8 22 C-8.99 21.67 -9.98 21.34 -11 21 C-9.25951757 27.18776147 -9.25951757 27.18776147 -4.8125 31.5 C-3.4203125 32.2425 -3.4203125 32.2425 -2 33 C-2.33 33.99 -2.66 34.98 -3 36 C-4.1055189 35.06409496 -5.20935453 34.12620142 -6.3125 33.1875 C-7.23482422 32.40439453 -7.23482422 32.40439453 -8.17578125 31.60546875 C-11.4174882 28.75248897 -13.01288469 27.23049417 -14 23 C-14.66 22.67 -15.32 22.34 -16 22 C-16 19.36 -16 16.72 -16 14 C-15.01 13.67 -14.02 13.34 -13 13 C-12.67 12.01 -12.34 11.02 -12 10 C-11.01 9.34 -10.02 8.68 -9 8 C-8.67 8.99 -8.34 9.98 -8 11 C-9.32 11.33 -10.64 11.66 -12 12 C-12 12.66 -12 13.32 -12 14 C-10.68 14.33 -9.36 14.66 -8 15 C-7.34 10.71 -6.68 6.42 -6 2 C-5.67 2 -5.34 2 -5 2 C-4.67 4.97 -4.34 7.94 -4 11 C-3.67 8.36 -3.34 5.72 -3 3 C-2.34 3 -1.68 3 -1 3 C-0.67 2.01 -0.34 1.02 0 0 Z " fill="#1C1C1C" transform="translate(79,55)"/>
<path d="M0 0 C2.27599624 2.27599624 2.37585827 3.05486806 2.8515625 6.140625 C2.98046875 6.96433594 3.109375 7.78804687 3.2421875 8.63671875 C3.36851563 9.49910156 3.49484375 10.36148438 3.625 11.25 C3.7590625 12.09691406 3.893125 12.94382812 4.03125 13.81640625 C4.70472639 18.23523604 5.27127565 22.51681294 5 27 C4.67 27.33 4.34 27.66 4 28 C3.83333333 30.5 3.83333333 30.5 4 33 C4.33 33.33 4.66 33.66 5 34 C5.07258946 36.18639453 5.08373783 38.37500389 5.0625 40.5625 C5.05347656 41.76003906 5.04445313 42.95757812 5.03515625 44.19140625 C5.02355469 45.11824219 5.01195313 46.04507813 5 47 C3.68 46.67 2.36 46.34 1 46 C0.46655836 43.29361246 -0.05200929 40.58572796 -0.5625 37.875 C-0.71396484 37.11445312 -0.86542969 36.35390625 -1.02148438 35.5703125 C-1.85362121 31.08064398 -2.09054027 27.52104773 -1 23 C-1.66 23 -2.32 23 -3 23 C-3.06058594 22.39671875 -3.12117188 21.7934375 -3.18359375 21.171875 C-3.26738281 20.37265625 -3.35117188 19.5734375 -3.4375 18.75 C-3.51871094 17.96109375 -3.59992188 17.1721875 -3.68359375 16.359375 C-3.91539435 14.03009534 -3.91539435 14.03009534 -4.6875 12.03125 C-5.14808363 9.03745638 -3.97909505 7.37588351 -2.5625 4.75 C-2.08941406 3.85796875 -1.61632812 2.9659375 -1.12890625 2.046875 C-0.75636719 1.37140625 -0.38382812 0.6959375 0 0 Z " fill="#0B0B0B" transform="translate(104,52)"/>
<path d="M0 0 C0.33 0 0.66 0 1 0 C1.02903892 4.08331839 1.04681189 8.1666102 1.0625 12.25 C1.07087891 13.40886719 1.07925781 14.56773438 1.08789062 15.76171875 C1.09111328 16.87675781 1.09433594 17.99179688 1.09765625 19.140625 C1.10289307 20.16704102 1.10812988 21.19345703 1.11352539 22.25097656 C1.01278204 24.69048227 0.65053167 26.66469297 0 29 C-0.06624507 30.74886981 -0.08552595 32.50002748 -0.0625 34.25 C-0.04896484 35.58804688 -0.04896484 35.58804688 -0.03515625 36.953125 C-0.02355469 37.62859375 -0.01195313 38.3040625 0 39 C-0.6290625 39.27972656 -1.258125 39.55945313 -1.90625 39.84765625 C-4.67027488 41.36890129 -5.42309462 43.30611997 -7 46 C-8.30595217 47.03550312 -9.63645375 48.04160582 -11 49 C-10.88512252 47.41590006 -10.75765492 45.83271037 -10.625 44.25 C-10.52058594 42.92742187 -10.52058594 42.92742187 -10.4140625 41.578125 C-10 39 -10 39 -8.97265625 36.97265625 C-7.78134726 34.55654765 -7.83265641 32.87636523 -7.8125 30.1875 C-7.16356015 19.79148363 -3.2091841 9.83633055 0 0 Z " fill="#F7F7F7" transform="translate(91,107)"/>
<path d="M0 0 C1.32 0.33 2.64 0.66 4 1 C4 5.29 4 9.58 4 14 C4.66 13.67 5.32 13.34 6 13 C6 12.01 6 11.02 6 10 C7.65 9.67 9.3 9.34 11 9 C10.67 10.32 10.34 11.64 10 13 C12.31 13 14.62 13 17 13 C17 13.99 17 14.98 17 16 C11.39 16.66 5.78 17.32 0 18 C0 15.69 0 13.38 0 11 C-0.66 11 -1.32 11 -2 11 C-2.103125 11.598125 -2.20625 12.19625 -2.3125 12.8125 C-3.08876455 15.28243264 -4.07088921 16.32251235 -6 18 C-5.773125 17.46375 -5.54625 16.9275 -5.3125 16.375 C-4.74852584 13.80285593 -4.74852584 13.80285593 -6.5 11 C-8 8 -8 8 -7.6875 5.625 C-7.460625 5.08875 -7.23375 4.5525 -7 4 C-6.38125 3.87625 -5.7625 3.7525 -5.125 3.625 C-2.80879168 3.12802644 -2.80879168 3.12802644 -1 1 C-1 2.65 -1 4.3 -1 6 C0.29633621 4.93354885 0.29633621 4.93354885 0.0625 2.4375 C0.041875 1.633125 0.02125 0.82875 0 0 Z " fill="#414141" transform="translate(74,148)"/>
<path d="M0 0 C2.5 1.625 2.5 1.625 5 4 C5.375 7.1875 5.375 7.1875 5 10 C4.67 10.33 4.34 10.66 4 11 C4.99 11 5.98 11 7 11 C7.99 12.485 7.99 12.485 9 14 C8.20250526 16.59185791 7.10413032 18.808181 5.8125 21.1875 C5.544375 21.785625 5.27625 22.38375 5 23 C5.33 23.66 5.66 24.32 6 25 C4.78041244 27.67371119 3.81701739 29.75412136 2 32 C-0.75 32.9375 -0.75 32.9375 -3 33 C-2 30 -1 27 0 24 C-0.99 23.01 -1.98 22.02 -3 21 C-2.67 20.34 -2.34 19.68 -2 19 C-2 18.67 -2 18.34 -2 18 C-1.67 17.34 -1.34 16.68 -1 16 C-0.34 16 0.32 16 1 16 C0.34 14.68 -0.32 13.36 -1 12 C-1.99 12.495 -1.99 12.495 -3 13 C-3.33 10.03 -3.66 7.06 -4 4 C-2.68 4 -1.36 4 0 4 C0.66 5.32 1.32 6.64 2 8 C2.66 8 3.32 8 4 8 C3.01 6.576875 3.01 6.576875 2 5.125 C0 2 0 2 0 0 Z " fill="#AAAAAA" transform="translate(83,55)"/>
<path d="M0 0 C1.32 0.66 2.64 1.32 4 2 C3.57847656 2.68964844 3.15695313 3.37929687 2.72265625 4.08984375 C-0.86934266 10.25117835 -2.76584191 14.85817812 -3 22 C-3.66 22 -4.32 22 -5 22 C-5.33 22.66 -5.66 23.32 -6 24 C-8 18.375 -8 18.375 -8 15 C-8.66 14.67 -9.32 14.34 -10 14 C-10 16.31 -10 18.62 -10 21 C-10.99 20.67 -11.98 20.34 -13 20 C-13 18.68 -13 17.36 -13 16 C-13.66 16.33 -14.32 16.66 -15 17 C-15.06058594 16.38511719 -15.12117188 15.77023438 -15.18359375 15.13671875 C-15.26738281 14.32847656 -15.35117188 13.52023438 -15.4375 12.6875 C-15.51871094 11.88699219 -15.59992188 11.08648437 -15.68359375 10.26171875 C-15.95265693 7.83912821 -15.95265693 7.83912821 -17 5 C-13.06225823 4.63369844 -11.43460229 4.69766797 -8.125 7 C-7.073125 7.99 -7.073125 7.99 -6 9 C-3.03 4.545 -3.03 4.545 0 0 Z " fill="#1A1A1A" transform="translate(122,115)"/>
<path d="M0 0 C1.35384615 7.26153846 1.35384615 7.26153846 -0.4375 11 C-0.953125 11.66 -1.46875 12.32 -2 13 C-1.67 13.33 -1.34 13.66 -1 14 C-1.37486695 17.24884691 -1.87723419 20.42709291 -2.5625 23.625 C-3.02430827 26.13195919 -3.07266822 28.45661228 -3 31 C-4.98 31 -6.96 31 -9 31 C-8.67 26.71 -8.34 22.42 -8 18 C-7.01 18 -6.02 18 -5 18 C-5 17.34 -5 16.68 -5 16 C-5.99 15.67 -6.98 15.34 -8 15 C-8.78150669 6.05609012 -8.78150669 6.05609012 -5.6875 1.875 C-3 0 -3 0 0 0 Z " fill="#DBDBDB" transform="translate(102,104)"/>
<path d="M0 0 C1.98 0.66 3.96 1.32 6 2 C6.125 8.75 6.125 8.75 5 11 C4.85624578 14.37822416 4.92463652 16.77390955 6 20 C5.67 20.66 5.34 21.32 5 22 C5.99 22 6.98 22 8 22 C7.67 20.68 7.34 19.36 7 18 C8.5 19.3125 8.5 19.3125 10 21 C10 21.99 10 22.98 10 24 C11.32 24.33 12.64 24.66 14 25 C13.67 26.32 13.34 27.64 13 29 C11.68 29 10.36 29 9 29 C8.67 27.68 8.34 26.36 8 25 C5.69 25.66 3.38 26.32 1 27 C-0.0394775 23.8815675 -0.11494838 21.72524414 -0.09765625 18.45703125 C-0.09443359 17.38388672 -0.09121094 16.31074219 -0.08789062 15.20507812 C-0.07951172 14.08552734 -0.07113281 12.96597656 -0.0625 11.8125 C-0.05798828 10.68134766 -0.05347656 9.55019531 -0.04882812 8.38476562 C-0.03703498 5.58979073 -0.0205765 2.7949218 0 0 Z " fill="#E2E2E2" transform="translate(92,136)"/>
<path d="M0 0 C2.09440189 3.40340307 2.25797575 6.04437178 2 10 C1.67 10.66 1.34 11.32 1 12 C0.34 12 -0.32 12 -1 12 C-1.33 11.34 -1.66 10.68 -2 10 C-2.33 11.32 -2.66 12.64 -3 14 C-2.67 13.67 -2.34 13.34 -2 13 C-1.34 13 -0.68 13 0 13 C-0.48578543 16.12290635 -0.9986012 18.99580359 -2 22 C-3.98 21.34 -5.96 20.68 -8 20 C-8.66 20.99 -9.32 21.98 -10 23 C-10.66 23 -11.32 23 -12 23 C-12.07427838 19.65747276 -12.06546953 17.1964086 -11 14 C-12.32 13.67 -13.64 13.34 -15 13 C-15 10 -15 10 -13 8 C-12.67 9.32 -12.34 10.64 -12 12 C-10.07690578 11.96044102 -10.07690578 11.96044102 -8 11 C-6.96708324 9.01679982 -5.9662501 7.01652194 -5 5 C-4.01 4.67 -3.02 4.34 -2 4 C-0.79117904 1.99983534 -0.79117904 1.99983534 0 0 Z " fill="#242424" transform="translate(93,75)"/>
<path d="M0 0 C1.32 0 2.64 0 4 0 C5 3 5 3 4 5.75 C2.7391254 8.98602458 2.7391254 8.98602458 3.5625 12.375 C4.14463142 17.1983746 3.03837902 19.62125989 1 24 C0.34 24.33 -0.32 24.66 -1 25 C-1.33 25.66 -1.66 26.32 -2 27 C-1.67 27.33 -1.34 27.66 -1 28 C-1.28604898 29.67542976 -1.61781233 31.34385343 -2 33 C-2.99 33 -3.98 33 -5 33 C-5.18388216 27.66741736 -4.69438862 24.08316587 -3 19 C-3.30027117 17.32706064 -3.63557767 15.66014616 -4 14 C-3 3 -3 3 0 0 Z " fill="#DDDDDD" transform="translate(81,103)"/>
<path d="M0 0 C0 1.65 0 3.3 0 5 C1.14210938 4.98839844 2.28421875 4.97679687 3.4609375 4.96484375 C17.66094358 4.86974116 31.81534693 5.37076102 46 6 C46 6.33 46 6.66 46 7 C24.55 7 3.1 7 -19 7 C-18.34 5.68 -17.68 4.36 -17 3 C-13.8125 2.375 -13.8125 2.375 -10 2 C-2.94117647 0 -2.94117647 0 0 0 Z " fill="#575757" transform="translate(77,167)"/>
<path d="M0 0 C0.66666667 1.33333333 1.33333333 2.66666667 2 4 C2.3609375 4.61101562 2.721875 5.22203125 3.09375 5.8515625 C4.17784772 8.42162174 4.03684869 9.88849427 3.625 12.625 C3.51414062 13.40101562 3.40328125 14.17703125 3.2890625 14.9765625 C3.14597656 15.97816406 3.14597656 15.97816406 3 17 C3 17.66 3 18.32 3 19 C3.99 19.33 4.98 19.66 6 20 C7.2077558 23.62326739 6.54311128 24.64146369 5 28 C3.33333333 28 1.66666667 28 0 28 C0.06960937 27.39671875 0.13921875 26.7934375 0.2109375 26.171875 C0.38057446 23.66771034 0.43068356 21.47643045 0 19 C-2.83333333 16.75 -2.83333333 16.75 -6 15 C-7.23683892 12.18900245 -8 10.06660382 -8 7 C-6.125 7.3125 -6.125 7.3125 -4 8 C-3.01 9.485 -3.01 9.485 -2 11 C-2.061875 9.39125 -2.061875 9.39125 -2.125 7.75 C-2.0114175 4.34252515 -1.78726636 2.79260369 0 0 Z " fill="#D0D0D0" transform="translate(76,69)"/>
<path d="M0 0 C0.33 0 0.66 0 1 0 C1.36923077 7.38461538 1.36923077 7.38461538 -0.5 10.5 C-0.995 10.995 -1.49 11.49 -2 12 C-1.443125 12.268125 -0.88625 12.53625 -0.3125 12.8125 C2.19712523 14.10122647 4.59334236 15.52926478 7 17 C6.38461538 22.53846154 6.38461538 22.53846154 4.4375 24.875 C3.7259375 25.431875 3.7259375 25.431875 3 26 C3.66666667 23.33333333 4.33333333 20.66666667 5 18 C3.68 17.34 2.36 16.68 1 16 C0.34 16.99 -0.32 17.98 -1 19 C-0.01 19.33 0.98 19.66 2 20 C2 21.65 2 23.3 2 25 C1.01 25 0.02 25 -1 25 C-1 24.34 -1 23.68 -1 23 C-1.66 23 -2.32 23 -3 23 C-3.33 23.66 -3.66 24.32 -4 25 C-7 19.25 -7 19.25 -7 17 C-6.34 16.67 -5.68 16.34 -5 16 C-5.25561323 13.6568787 -5.59270772 11.32156597 -6 9 C-6.66 8.67 -7.32 8.34 -8 8 C-8 7.34 -8 6.68 -8 6 C-5.69 6.33 -3.38 6.66 -1 7 C-1 6.34 -1 5.68 -1 5 C-1.66 4.67 -2.32 4.34 -3 4 C-2.34 3.34 -1.68 2.68 -1 2 C-0.67 1.34 -0.34 0.68 0 0 Z " fill="#252525" transform="translate(95,33)"/>
<path d="M0 0 C1.98 0 3.96 0 6 0 C6 0.66 6 1.32 6 2 C5.34 2 4.68 2 4 2 C4.33 2.66 4.66 3.32 5 4 C6.32 4 7.64 4 9 4 C9.08226668 7.04386724 8.97608217 9.07175348 8 12 C5.69 11.67 3.38 11.34 1 11 C1 11.66 1 12.32 1 13 C1.99 13.33 2.98 13.66 4 14 C3.49396008 16.16874252 3.00016187 17.99967627 2 20 C-0.9737344 21.09036928 -1.88407501 21.03864166 -5 20 C-4.67 18.35 -4.34 16.7 -4 15 C-3.34 15.33 -2.68 15.66 -2 16 C-1.37542727 12.56484998 -1 9.50935186 -1 6 C-0.69169075 3.99598989 -0.36270588 1.99488234 0 0 Z " fill="#EEEEEE" transform="translate(86,28)"/>
<path d="M0 0 C0.66 0 1.32 0 2 0 C2 0.99 2 1.98 2 3 C2.99 2.67 3.98 2.34 5 2 C5 2.66 5 3.32 5 4 C5.66 4 6.32 4 7 4 C7.33 3.34 7.66 2.68 8 2 C8.33 2.99 8.66 3.98 9 5 C8.01 5.495 8.01 5.495 7 6 C6.30906104 8.57951874 6.30906104 8.57951874 5.875 11.5625 C5.62363281 13.08037109 5.62363281 13.08037109 5.3671875 14.62890625 C5.24601562 15.41136719 5.12484375 16.19382812 5 17 C4.67 17 4.34 17 4 17 C3.67 15.02 3.34 13.04 3 11 C2.34 12.98 1.68 14.96 1 17 C1.66 17.33 2.32 17.66 3 18 C0.36 17.67 -2.28 17.34 -5 17 C-4.34 16.67 -3.68 16.34 -3 16 C-3 15.34 -3 14.68 -3 14 C-1.68 13.67 -0.36 13.34 1 13 C0.67 12.34 0.34 11.68 0 11 C-0.99 11.66 -1.98 12.32 -3 13 C-4.00821159 10.31143576 -4.22736824 8.58296785 -3.17578125 5.88671875 C-2.16604698 3.89205069 -1.11893353 1.9353228 0 0 Z " fill="#BEBEBE" transform="translate(70,53)"/>
<path d="M0 0 C0 1.98 0 3.96 0 6 C-6.6 6 -13.2 6 -20 6 C-19.67 4.35 -19.34 2.7 -19 1 C-12.62641289 0.03794912 -6.44070471 -0.10655578 0 0 Z " fill="#FCFCFC" transform="translate(97,166)"/>
<path d="M0 0 C0.33 0 0.66 0 1 0 C1.13277344 0.91523437 1.26554687 1.83046875 1.40234375 2.7734375 C1.57894531 3.96195312 1.75554687 5.15046875 1.9375 6.375 C2.11152344 7.55835937 2.28554687 8.74171875 2.46484375 9.9609375 C2.83462786 12.90702381 2.83462786 12.90702381 4 15 C3.01 16.485 3.01 16.485 2 18 C1.34 17.67 0.68 17.34 0 17 C-0.66 16.835 -1.32 16.67 -2 16.5 C-4 16 -4 16 -6 15 C-7.56357343 11.30428099 -6.66537975 7.84441631 -6 4 C-5.38125 3.896875 -4.7625 3.79375 -4.125 3.6875 C-1.63473516 3.12474627 -1.63473516 3.12474627 0 0 Z " fill="#181818" transform="translate(102,82)"/>
<path d="M0 0 C1.04005702 3.38018531 1.08004482 6.4780279 1 10 C1.66 9.67 2.32 9.34 3 9 C3.99 11.64 4.98 14.28 6 17 C5.01 17.33 4.02 17.66 3 18 C3.66 18.66 4.32 19.32 5 20 C4.01 20.33 3.02 20.66 2 21 C2 21.66 2 22.32 2 23 C2.99 23.33 3.98 23.66 5 24 C3.25 28.875 3.25 28.875 1 30 C0.87882812 29.34773438 0.75765625 28.69546875 0.6328125 28.0234375 C-0.4192742 22.45419856 -0.4192742 22.45419856 -2.125 17.0625 C-3.45358528 12.41245152 -3.15386675 7.80406184 -3 3 C-2.34 3 -1.68 3 -1 3 C-0.67 2.01 -0.34 1.02 0 0 Z " fill="#1C1C1C" transform="translate(79,55)"/>
<path d="M0 0 C2.29013653 3.4352048 2.17842973 4.985331 2 9 C1.01 9.33 0.02 9.66 -1 10 C-1.08121094 10.80308594 -1.16242188 11.60617188 -1.24609375 12.43359375 C-2.38466217 17.81967131 -4.84265004 22.50811333 -7.20507812 27.45507812 C-9.8052939 32.96811673 -9.8052939 32.96811673 -10 39 C-9.34 38.34 -8.68 37.68 -8 37 C-8 38.65 -8 40.3 -8 42 C-8.99 42 -9.98 42 -11 42 C-13.24102559 38.63846162 -13.52004002 37.90030015 -13 34 C-11.83138919 31.24713845 -10.40089467 28.64033029 -9 26 C-6.80594888 21.62718732 -4.89923209 17.66282941 -4.4375 12.75 C-3.98891018 8.9049444 -3.10481779 7.15722668 -1 4 C-0.30420546 1.80869466 -0.30420546 1.80869466 0 0 Z " fill="#2C2C2C" transform="translate(77,93)"/>
<path d="M0 0 C0.66 0.33 1.32 0.66 2 1 C2.59423828 2.94604492 2.59423828 2.94604492 3.0703125 5.48046875 C3.33134766 6.8562207 3.33134766 6.8562207 3.59765625 8.25976562 C3.85869141 9.70899414 3.85869141 9.70899414 4.125 11.1875 C4.30675781 12.13431641 4.48851563 13.08113281 4.67578125 14.05664062 C5.54879219 18.7597409 6.2423367 23.19365537 6 28 C3.69 27.67 1.38 27.34 -1 27 C-0.83628906 25.88625 -0.67257813 24.7725 -0.50390625 23.625 C0.10669314 18.74020485 0.11158497 13.91604855 0.0625 9 C0.05798828 8.12988281 0.05347656 7.25976562 0.04882812 6.36328125 C0.0371736 4.24215707 0.01924357 2.1210689 0 0 Z " fill="#D9D9D9" transform="translate(113,137)"/>
<path d="M0 0 C3.62162229 5.43243343 4.36422072 11.58312225 5.125 17.9375 C5.21136719 18.62134766 5.29773438 19.30519531 5.38671875 20.00976562 C5.59602285 21.67257046 5.79871722 23.33620513 6 25 C-0.93 24.505 -0.93 24.505 -8 24 C-8 23.67 -8 23.34 -8 23 C-7.21625 22.87625 -6.4325 22.7525 -5.625 22.625 C-2.85942178 22.20882007 -2.85942178 22.20882007 -1 20 C-0.01 20.99 0.98 21.98 2 23 C1.77183594 21.92621094 1.54367188 20.85242188 1.30859375 19.74609375 C1.01762421 18.31001827 0.7272936 16.87381324 0.4375 15.4375 C0.28603516 14.73302734 0.13457031 14.02855469 -0.02148438 13.30273438 C-0.96760613 8.52811995 -0.94832051 4.77928414 0 0 Z " fill="#151515" transform="translate(117,142)"/>
<path d="M0 0 C3.2102122 3.2102122 2.98974759 6.37460314 3.0625 10.8125 C3.041875 11.864375 3.02125 12.91625 3 14 C2.34 14 1.68 14 1 14 C1 14.66 1 15.32 1 16 C0.01 16 -0.98 16 -2 16 C-2.33 16.99 -2.66 17.98 -3 19 C-4.50040215 15.99919571 -5.22369524 13.3312454 -5 10 C-3.6263434 6.49181381 -1.89208477 3.25386204 0 0 Z " fill="#111111" transform="translate(104,52)"/>
<path d="M0 0 C1.05543251 3.18769143 0.97424908 4.94786631 -0.25 8.0625 C-0.50265625 8.73410156 -0.7553125 9.40570313 -1.015625 10.09765625 C-2.48056199 12.92870512 -4.15783811 14.57891905 -7 16 C-7.68729254 18.11846285 -7.68729254 18.11846285 -8.125 20.5625 C-8.29257813 21.38878906 -8.46015625 22.21507813 -8.6328125 23.06640625 C-8.75398438 23.70449219 -8.87515625 24.34257813 -9 25 C-9.99 24.67 -10.98 24.34 -12 24 C-12.33 22.35 -12.66 20.7 -13 19 C-12.01 18.67 -11.02 18.34 -10 18 C-8.70592693 15.6833279 -8.70592693 15.6833279 -7.625 12.875 C-5.55166994 8.04143114 -3.22197319 4.14253695 0 0 Z " fill="#606060" transform="translate(108,42)"/>
<path d="M0 0 C0 1.98 0 3.96 0 6 C-5.94 6 -11.88 6 -18 6 C-17.67 5.01 -17.34 4.02 -17 3 C-15.989375 2.87625 -14.97875 2.7525 -13.9375 2.625 C-9.21145765 1.87483455 -4.77744317 0 0 0 Z " fill="#0F0F0F" transform="translate(77,167)"/>
<path d="M0 0 C1.65 0.99 3.3 1.98 5 3 C4.67 6.3 4.34 9.6 4 13 C2.68 13 1.36 13 0 13 C-0.33 13.99 -0.66 14.98 -1 16 C-1.33 15.01 -1.66 14.02 -2 13 C-2.66 14.32 -3.32 15.64 -4 17 C-5.1875 15.3125 -5.1875 15.3125 -6 13 C-4.75 10.25 -4.75 10.25 -3 8 C-2.34 8 -1.68 8 -1 8 C-1 8.66 -1 9.32 -1 10 C-0.01 10 0.98 10 2 10 C2 8.35 2 6.7 2 5 C0.68 4.67 -0.64 4.34 -2 4 C-1.34 3.67 -0.68 3.34 0 3 C0 2.01 0 1.02 0 0 Z " fill="#9A9A9A" transform="translate(95,48)"/>
<path d="M0 0 C0.66 0.66 1.32 1.32 2 2 C1.43152344 2.18175781 0.86304687 2.36351562 0.27734375 2.55078125 C-5.31953946 4.372805 -10.7269768 6.3634884 -16 9 C-16 7.35 -16 5.7 -16 4 C-10.72530259 0.40871666 -6.43248729 -1.12666783 0 0 Z " fill="#3D3D3D" transform="translate(94,22)"/>
<path d="M0 0 C0.66 0 1.32 0 2 0 C3.04449911 3.13349732 2.93423645 3.98968256 2 7 C2.66 6.67 3.32 6.34 4 6 C5.99960012 5.960008 8.00047242 5.95653201 10 6 C6.51543561 9.20579924 3.63109718 9.47713419 -1 10 C-4.3420405 10.62449808 -7.67090484 11.3100668 -11 12 C-11 11.34 -11 10.68 -11 10 C-9.02 9.67 -7.04 9.34 -5 9 C-4.67 8.01 -4.34 7.02 -4 6 C-3 5 -2 4 -1 3 C-0.67 2.01 -0.34 1.02 0 0 Z " fill="#A6A6A6" transform="translate(72,159)"/>
<path d="M0 0 C0.66 1.32 1.32 2.64 2 4 C3.65 4 5.3 4 7 4 C6.01 6.31 5.02 8.62 4 11 C3.21625 10.979375 2.4325 10.95875 1.625 10.9375 C-0.98114961 10.81315937 -0.98114961 10.81315937 -3 12 C-3.66 9.69 -4.32 7.38 -5 5 C-3.68 5 -2.36 5 -1 5 C-0.67 3.35 -0.34 1.7 0 0 Z " fill="#232323" transform="translate(49,151)"/>
<path d="M0 0 C1.65 0 3.3 0 5 0 C5 4.33333333 5 8.66666667 5 13 C3.02 13 1.04 13 -1 13 C-0.67 8.71 -0.34 4.42 0 0 Z " fill="#9B9B9B" transform="translate(94,122)"/>
<path d="M0 0 C5.75 0.875 5.75 0.875 8 2 C7.79375 2.598125 7.5875 3.19625 7.375 3.8125 C6.69328085 6.28450846 6.69328085 6.28450846 9 9 C7.02 9 5.04 9 3 9 C2.67 9.66 2.34 10.32 2 11 C1.67 9.68 1.34 8.36 1 7 C-0.32 6.67 -1.64 6.34 -3 6 C-2.01 5.67 -1.02 5.34 0 5 C0 3.35 0 1.7 0 0 Z " fill="#242424" transform="translate(11,97)"/>
<path d="M0 0 C0.66 0 1.32 0 2 0 C2 1.65 2 3.3 2 5 C2.99 5.33 3.98 5.66 5 6 C3.68 6.33 2.36 6.66 1 7 C1 8.32 1 9.64 1 11 C0.34 11 -0.32 11 -1 11 C-1.33 10.34 -1.66 9.68 -2 9 C-3.65 9 -5.3 9 -7 9 C-6.649375 8.236875 -6.29875 7.47375 -5.9375 6.6875 C-4.67639116 3.95240621 -4.67639116 3.95240621 -6 1 C-3.03 1.495 -3.03 1.495 0 2 C0 1.34 0 0.68 0 0 Z " fill="#242424" transform="translate(169,96)"/>
<path d="M0 0 C0.66 0 1.32 0 2 0 C2.33 0.66 2.66 1.32 3 2 C5.01669827 3.13350534 5.01669827 3.13350534 7 4 C6.34 5.98 5.68 7.96 5 10 C4.21625 9.979375 3.4325 9.95875 2.625 9.9375 C0.01885039 9.81315937 0.01885039 9.81315937 -2 11 C-2 9.02 -2 7.04 -2 5 C-2.66 5 -3.32 5 -4 5 C-4 4.34 -4 3.68 -4 3 C-2.68 3 -1.36 3 0 3 C0 2.01 0 1.02 0 0 Z " fill="#222222" transform="translate(15,65)"/>
<path d="M0 0 C0.66666667 1.33333333 1.33333333 2.66666667 2 4 C2.3609375 4.6084375 2.721875 5.216875 3.09375 5.84375 C4.18696963 8.44485877 4.03238453 9.97978517 3.625 12.75 C3.51414062 13.54921875 3.40328125 14.3484375 3.2890625 15.171875 C3.19367188 15.77515625 3.09828125 16.3784375 3 17 C-1.93181818 12.22727273 -1.93181818 12.22727273 -2.1875 7.625 C-2.01703404 4.32932477 -1.73844294 2.7163171 0 0 Z " fill="#E3E3E3" transform="translate(76,69)"/>
<path d="M0 0 C0.33 1.32 0.66 2.64 1 4 C2.32 4.33 3.64 4.66 5 5 C4.67 5.66 4.34 6.32 4 7 C3.01 7 2.02 7 1 7 C1 8.32 1 9.64 1 11 C0.34 11 -0.32 11 -1 11 C-1.33 10.34 -1.66 9.68 -2 9 C-3.65 9 -5.3 9 -7 9 C-6.649375 8.21625 -6.29875 7.4325 -5.9375 6.625 C-5.628125 5.75875 -5.31875 4.8925 -5 4 C-5.33 3.34 -5.66 2.68 -6 2 C-4.02 1.34 -2.04 0.68 0 0 Z " fill="#1D1D1D" transform="translate(27,129)"/>
<path d="M0 0 C0.33 0.66 0.66 1.32 1 2 C0.33333333 3.33333333 -0.33333333 4.66666667 -1 6 C-0.67 6.66 -0.34 7.32 0 8 C-1.21958756 10.67371119 -2.18298261 12.75412136 -4 15 C-6.75 15.9375 -6.75 15.9375 -9 16 C-8.67 15.0925 -8.34 14.185 -8 13.25 C-6.80394277 9.92954193 -6.80394277 9.92954193 -7 6 C-6.401875 5.7525 -5.80375 5.505 -5.1875 5.25 C-2.71352479 3.83629988 -1.56629745 2.34944617 0 0 Z " fill="#A9A9A9" transform="translate(89,72)"/>
<path d="M0 0 C0.66 1.32 1.32 2.64 2 4 C3.65 4 5.3 4 7 4 C6.67 4.66 6.34 5.32 6 6 C5.34 6 4.68 6 4 6 C4 7.65 4 9.3 4 11 C1.69 11 -0.62 11 -3 11 C-3.144375 10.21625 -3.28875 9.4325 -3.4375 8.625 C-3.87798925 6.03578982 -3.87798925 6.03578982 -5 4 C-3.68 4 -2.36 4 -1 4 C-0.67 2.68 -0.34 1.36 0 0 Z " fill="#1C1C1C" transform="translate(165,63)"/>
<path d="M0 0 C2.31 0.33 4.62 0.66 7 1 C6.979375 1.94875 6.95875 2.8975 6.9375 3.875 C6.77448174 6.90666283 6.77448174 6.90666283 8 9 C6.35 9 4.7 9 3 9 C2.67 9.66 2.34 10.32 2 11 C1.34 11 0.68 11 0 11 C0 9.68 0 8.36 0 7 C-0.99 7 -1.98 7 -3 7 C-3 6.34 -3 5.68 -3 5 C-2.34 4.67 -1.68 4.34 -1 4 C-0.34786708 1.97536745 -0.34786708 1.97536745 0 0 Z " fill="#1F1F1F" transform="translate(57,16)"/>
<path d="M0 0 C0.2475 0.639375 0.495 1.27875 0.75 1.9375 C1.81562433 4.18741541 1.81562433 4.18741541 4.125 4.75 C4.74375 4.8325 5.3625 4.915 6 5 C5.34 6.98 4.68 8.96 4 11 C3.21625 10.814375 2.4325 10.62875 1.625 10.4375 C-0.97089775 9.74037734 -0.97089775 9.74037734 -3 11 C-3 9.35 -3 7.7 -3 6 C-3.66 6 -4.32 6 -5 6 C-5 5.34 -5 4.68 -5 4 C-3.68 4 -2.36 4 -1 4 C-0.67 2.68 -0.34 1.36 0 0 Z " fill="#1C1C1C" transform="translate(91,9)"/>
<path d="M0 0 C0.66 0.33 1.32 0.66 2 1 C2 1.99 2 2.98 2 4 C3.32 4.33 4.64 4.66 6 5 C5.34 6.98 4.68 8.96 4 11 C3.401875 10.814375 2.80375 10.62875 2.1875 10.4375 C-0.16408762 9.77906313 -0.16408762 9.77906313 -3 11 C-3.144375 10.21625 -3.28875 9.4325 -3.4375 8.625 C-3.87798925 6.03578982 -3.87798925 6.03578982 -5 4 C-3.68 4 -2.36 4 -1 4 C-0.67 2.68 -0.34 1.36 0 0 Z " fill="#171717" transform="translate(135,150)"/>
<path d="M0 0 C2.31 0 4.62 0 7 0 C6.79375 0.763125 6.5875 1.52625 6.375 2.3125 C5.66608797 5.21885944 5.66608797 5.21885944 8 8 C5.69 8.66 3.38 9.32 1 10 C1 9.01 1 8.02 1 7 C-0.65 6.67 -2.3 6.34 -4 6 C-3.67 5.34 -3.34 4.68 -3 4 C-2.01 4 -1.02 4 0 4 C0 2.68 0 1.36 0 0 Z " fill="#1D1D1D" transform="translate(155,128)"/>
<path d="M0 0 C0.78375 0.33 1.5675 0.66 2.375 1 C4.84332497 2.11866511 4.84332497 2.11866511 7 2 C6.979375 2.78375 6.95875 3.5675 6.9375 4.375 C6.81315937 6.98114961 6.81315937 6.98114961 8 9 C6.68 9 5.36 9 4 9 C2.2488427 10.4166747 2.2488427 10.4166747 1 12 C0.87625 11.071875 0.87625 11.071875 0.75 10.125 C0.18741541 7.81562433 0.18741541 7.81562433 -2.0625 6.75 C-2.701875 6.5025 -3.34125 6.255 -4 6 C-2.68 5.67 -1.36 5.34 0 5 C0 3.35 0 1.7 0 0 Z " fill="#1B1B1B" transform="translate(147,36)"/>
<path d="M0 0 C1.53166168 4.08443115 0.63081652 7.79455657 0 12 C-0.66 11.34 -1.32 10.68 -2 10 C-2.66 11.32 -3.32 12.64 -4 14 C-4.66 14 -5.32 14 -6 14 C-7.140625 12.265625 -7.140625 12.265625 -8 10 C-7.171875 7.859375 -7.171875 7.859375 -5.75 5.75 C-5.06164062 4.69039063 -5.06164062 4.69039063 -4.359375 3.609375 C-3.91078125 3.07828125 -3.4621875 2.5471875 -3 2 C-2.34 2 -1.68 2 -1 2 C-0.67 1.34 -0.34 0.68 0 0 Z " fill="#565656" transform="translate(95,67)"/>
<path d="M0 0 C0.66 0 1.32 0 2 0 C2.12375 0.61875 2.2475 1.2375 2.375 1.875 C2.87197356 4.19120832 2.87197356 4.19120832 5 6 C3.68 6.33 2.36 6.66 1 7 C0.67 8.32 0.34 9.64 0 11 C-0.33 10.01 -0.66 9.02 -1 8 C-2.32 8 -3.64 8 -5 8 C-5.33 5.69 -5.66 3.38 -6 1 C-3.03 1.495 -3.03 1.495 0 2 C0 1.34 0 0.68 0 0 Z " fill="#171717" transform="translate(34,36)"/>
<path d="M0 0 C0.28875 0.61875 0.5775 1.2375 0.875 1.875 C1.93720042 4.13325765 1.93720042 4.13325765 4 6 C2.68 6.33 1.36 6.66 0 7 C-0.33 8.32 -0.66 9.64 -1 11 C-1.33 10.01 -1.66 9.02 -2 8 C-3.65 8 -5.3 8 -7 8 C-6.67 5.69 -6.34 3.38 -6 1 C-4.7934375 1.0309375 -4.7934375 1.0309375 -3.5625 1.0625 C-1.06645115 1.29633621 -1.06645115 1.29633621 0 0 Z " fill="#141414" transform="translate(125,17)"/>
<path d="M0 0 C1.32 0 2.64 0 4 0 C4 1.98 4 3.96 4 6 C3.01 6 2.02 6 1 6 C1 6.99 1 7.98 1 9 C2.32 9.33 3.64 9.66 5 10 C4.34 11.32 3.68 12.64 3 14 C1.68 14 0.36 14 -1 14 C-2.4552777 11.0894446 -1.63516661 9.04150948 -1.0625 5.875 C-0.77052734 4.23144531 -0.77052734 4.23144531 -0.47265625 2.5546875 C-0.31667969 1.71164063 -0.16070312 0.86859375 0 0 Z " fill="#111111" transform="translate(96,73)"/>
<path d="M0 0 C0.99 0 1.98 0 3 0 C3 1.65 3 3.3 3 5 C3.99 5.33 4.98 5.66 6 6 C5.49396008 8.16874252 5.00016187 9.99967627 4 12 C1.0262656 13.09036928 0.11592499 13.03864166 -3 12 C-2.67 10.35 -2.34 8.7 -2 7 C-1.34 7.33 -0.68 7.66 0 8 C1.01540112 3.89776415 1.01540112 3.89776415 0 0 Z " fill="#D4D4D4" transform="translate(84,36)"/>
<path d="M0 0 C0.33 0 0.66 0 1 0 C0.32692542 5.02518791 -0.54398845 9.97164705 -1.5625 14.9375 C-1.70107422 15.62134766 -1.83964844 16.30519531 -1.98242188 17.00976562 C-2.31983064 18.67353986 -2.65965879 20.33682315 -3 22 C-3.33 22 -3.66 22 -4 22 C-5.54499151 11.08998302 -5.54499151 11.08998302 -3 6 C-2.34 6 -1.68 6 -1 6 C-0.67 4.02 -0.34 2.04 0 0 Z " fill="#E1E1E1" transform="translate(109,129)"/>
<path d="M0 0 C0.66 1.32 1.32 2.64 2 4 C1.01 5.485 1.01 5.485 0 7 C-0.99 7 -1.98 7 -3 7 C-2.67 7.99 -2.34 8.98 -2 10 C-4 13 -4 13 -6 14 C-6.625 11.625 -6.625 11.625 -7 9 C-6.34 8.34 -5.68 7.68 -5 7 C-4.6278958 5.67696283 -4.29369827 4.34262065 -4 3 C-3 1 -3 1 0 0 Z " fill="#7C7C7C" transform="translate(85,28)"/>
<path d="M0 0 C2.4072125 1.78599637 3.81848389 3.1955206 4.48828125 6.1640625 C4.84788612 9.45954592 5 12.68486074 5 16 C3.68 15.67 2.36 15.34 1 15 C1.01740234 14.00419922 1.01740234 14.00419922 1.03515625 12.98828125 C1.11893409 6.43693213 1.11893409 6.43693213 0 0 Z " fill="#595959" transform="translate(103,119)"/>
<path d="M0 0 C0.66 0.33 1.32 0.66 2 1 C2 4.63 2 8.26 2 12 C0.02 12.99 0.02 12.99 -2 14 C-2.144375 12.88625 -2.28875 11.7725 -2.4375 10.625 C-2.78372035 7.17857953 -2.78372035 7.17857953 -4 5 C-3.525625 4.54625 -3.05125 4.0925 -2.5625 3.625 C-0.90972192 2.06741796 -0.90972192 2.06741796 0 0 Z " fill="#3B3B3B" transform="translate(101,121)"/>
<path d="M0 0 C0.66 0.33 1.32 0.66 2 1 C2 1.66 2 2.32 2 3 C0.68 3.33 -0.64 3.66 -2 4 C-2 4.66 -2 5.32 -2 6 C-0.02 6.66 1.96 7.32 4 8 C4 8.99 4 9.98 4 11 C1.03 11 -1.94 11 -5 11 C-5.33 9.35 -5.66 7.7 -6 6 C-5.01 5.67 -4.02 5.34 -3 5 C-2.67 4.01 -2.34 3.02 -2 2 C-1.34 1.34 -0.68 0.68 0 0 Z " fill="#313131" transform="translate(69,63)"/>
<path d="M0 0 C-4.455 0.495 -4.455 0.495 -9 1 C-9.33 3.31 -9.66 5.62 -10 8 C-11.9375 8.5625 -11.9375 8.5625 -14 9 C-14.33 8.67 -14.66 8.34 -15 8 C-14.82364548 5.30917128 -14.38164079 2.67148554 -14 0 C-13.34 0.66 -12.68 1.32 -12 2 C-11.4225 1.525625 -10.845 1.05125 -10.25 0.5625 C-5.98852359 -2.39685862 -4.78474978 -2.39237489 0 0 Z " fill="#1A1A1A" transform="translate(91,28)"/>
<path d="M0 0 C2.09440189 3.40340307 2.25797575 6.04437178 2 10 C1.67 10.66 1.34 11.32 1 12 C0.34 12 -0.32 12 -1 12 C-1.33 11.34 -1.66 10.68 -2 10 C-2.66 11.65 -3.32 13.3 -4 15 C-4.99 14.67 -5.98 14.34 -7 14 C-6.34 13.34 -5.68 12.68 -5 12 C-4.3574765 9.93125966 -4.3574765 9.93125966 -4 8 C-3.34 8 -2.68 8 -2 8 C-1.34 5.36 -0.68 2.72 0 0 Z " fill="#C5C5C5" transform="translate(93,75)"/>
<path d="M0 0 C1.32 0.66 2.64 1.32 4 2 C3.07425608 3.81853256 2.13401005 5.62968883 1.1875 7.4375 C0.40439453 8.95150391 0.40439453 8.95150391 -0.39453125 10.49609375 C-2 13 -2 13 -5 14 C-4.09953624 11.16997104 -3.23525495 8.45744017 -1.875 5.8125 C-0.78262547 3.88516673 -0.78262547 3.88516673 -1 1 C-0.67 0.67 -0.34 0.34 0 0 Z " fill="#777777" transform="translate(122,115)"/>
<path d="M0 0 C0.66 0.33 1.32 0.66 2 1 C2.28926947 3.02488628 2.57272154 5.05244016 2.75390625 7.08984375 C2.90406878 9.08252033 2.90406878 9.08252033 4 11 C3.01 12.485 3.01 12.485 2 14 C0 13 0 13 -1 10 C-1.99 9.67 -2.98 9.34 -4 9 C-3.34 8.34 -2.68 7.68 -2 7 C-1.01 7 -0.02 7 1 7 C0.67 4.69 0.34 2.38 0 0 Z " fill="#606060" transform="translate(102,86)"/>
<path d="M0 0 C1.2077558 3.62326739 0.54311128 4.64146369 -1 8 C-2.66666667 8 -4.33333333 8 -6 8 C-6 5.69 -6 3.38 -6 1 C-4 0 -4 0 0 0 Z " fill="#C6C6C6" transform="translate(82,89)"/>
<path d="M0 0 C0 1.98 0 3.96 0 6 C-2.31 6.33 -4.62 6.66 -7 7 C-6.75 4.625 -6.75 4.625 -6 2 C-3.84898936 0.54286376 -2.59713506 0 0 0 Z " fill="#EDEDED" transform="translate(91,154)"/>
<path d="M0 0 C0.66 0.33 1.32 0.66 2 1 C2.625 4.0625 2.625 4.0625 3 7 C1.68 7.99 0.36 8.98 -1 10 C-1.33 9.34 -1.66 8.68 -2 8 C-2.99 8 -3.98 8 -5 8 C-5.66 7.01 -6.32 6.02 -7 5 C-6.34 5 -5.68 5 -5 5 C-4.34 4.01 -3.68 3.02 -3 2 C-2.01 3.485 -2.01 3.485 -1 5 C-0.67 3.35 -0.34 1.7 0 0 Z " fill="#303030" transform="translate(92,59)"/>
<path d="M0 0 C0.33 0 0.66 0 1 0 C0.91291331 1.45945288 0.80473093 2.91765868 0.6875 4.375 C0.62949219 5.18710938 0.57148437 5.99921875 0.51171875 6.8359375 C0 9 0 9 -3 11 C-4.25664978 8.09399739 -5 6.20395416 -5 3 C-4.360625 2.87625 -3.72125 2.7525 -3.0625 2.625 C-2.0415625 2.315625 -2.0415625 2.315625 -1 2 C-0.67 1.34 -0.34 0.68 0 0 Z " fill="#A0A0A0" transform="translate(72,149)"/>
<path d="M0 0 C0.66 0 1.32 0 2 0 C1.51421457 3.12290635 1.0013988 5.99580359 0 9 C-2.4375 8.1875 -2.4375 8.1875 -5 7 C-5.33 6.01 -5.66 5.02 -6 4 C-4.02 3.34 -2.04 2.68 0 2 C0 1.34 0 0.68 0 0 Z " fill="#B3B3B3" transform="translate(91,88)"/>
<path d="M0 0 C0.33 0.99 0.66 1.98 1 3 C1.66 3.33 2.32 3.66 3 4 C3 5.65 3 7.3 3 9 C2.01 9.33 1.02 9.66 0 10 C-0.33 10.66 -0.66 11.32 -1 12 C-1 10.02 -1 8.04 -1 6 C-1.99 6 -2.98 6 -4 6 C-3.67 5.01 -3.34 4.02 -3 3 C-2.34 3 -1.68 3 -1 3 C-0.67 2.01 -0.34 1.02 0 0 Z " fill="#A2A2A2" transform="translate(96,63)"/>
<path d="M0 0 C0.99 0 1.98 0 3 0 C3.33 1.98 3.66 3.96 4 6 C-2.93 5.505 -2.93 5.505 -10 5 C-10 4.67 -10 4.34 -10 4 C-9.21625 3.87625 -8.4325 3.7525 -7.625 3.625 C-4.85942178 3.20882007 -4.85942178 3.20882007 -3 1 C-2.01 1.99 -1.02 2.98 0 4 C0 2.68 0 1.36 0 0 Z " fill="#4D4D4D" transform="translate(119,161)"/>
<path d="M0 0 C1.5 1.3125 1.5 1.3125 3 3 C3 3.99 3 4.98 3 6 C4.32 6.33 5.64 6.66 7 7 C6.67 8.32 6.34 9.64 6 11 C4.68 11 3.36 11 2 11 C1.855625 9.9275 1.71125 8.855 1.5625 7.75 C1.16250558 5.08337051 0.72408076 2.58600271 0 0 Z " fill="#B6B6B6" transform="translate(99,154)"/>
<path d="M0 0 C1.98 0.495 1.98 0.495 4 1 C4 3.97 4 6.94 4 10 C2.35 9.67 0.7 9.34 -1 9 C-0.67 6.03 -0.34 3.06 0 0 Z " fill="#8E8E8E" transform="translate(74,148)"/>
<path d="M0 0 C0.94875 0.350625 1.8975 0.70125 2.875 1.0625 C2.875 2.3825 2.875 3.7025 2.875 5.0625 C1.225 5.3925 -0.425 5.7225 -2.125 6.0625 C-2.125 5.4025 -2.125 4.7425 -2.125 4.0625 C-3.115 4.0625 -4.105 4.0625 -5.125 4.0625 C-5.125 2.7425 -5.125 1.4225 -5.125 0.0625 C-3.125 -0.9375 -3.125 -0.9375 0 0 Z " fill="#737373" transform="translate(112.125,98.9375)"/>
<path d="M0 0 C2.29013653 3.4352048 2.17842973 4.985331 2 9 C1.01 9.33 0.02 9.66 -1 10 C-2.21869929 12.50447516 -2.21869929 12.50447516 -3 15 C-3.33 15 -3.66 15 -4 15 C-4.33168041 10.2459141 -3.59443287 7.94353797 -1 4 C-0.30420546 1.80869466 -0.30420546 1.80869466 0 0 Z " fill="#686868" transform="translate(77,93)"/>
<path d="M0 0 C0.66 0 1.32 0 2 0 C0.52878465 4.65884861 0.52878465 4.65884861 -1.9375 6.25 C-3.6154811 6.86017494 -5.30614622 7.43538207 -7 8 C-7.33 6.68 -7.66 5.36 -8 4 C-7.34 4 -6.68 4 -6 4 C-6 3.01 -6 2.02 -6 1 C-4.35 1.33 -2.7 1.66 -1 2 C-0.67 1.34 -0.34 0.68 0 0 Z " fill="#777777" transform="translate(88,70)"/>
<path d="M0 0 C1.32 1.32 2.64 2.64 4 4 C3.01 4.33 2.02 4.66 1 5 C1 5.66 1 6.32 1 7 C1.99 7.33 2.98 7.66 4 8 C2.25 12.875 2.25 12.875 0 14 C-0.39012425 12.23243706 -0.7616098 10.46075217 -1.125 8.6875 C-1.33382812 7.70136719 -1.54265625 6.71523437 -1.7578125 5.69921875 C-2 3 -2 3 0 0 Z " fill="#2A2A2A" transform="translate(80,71)"/>
<path d="M0 0 C2.33944736 0.28730055 4.6739143 0.61936779 7 1 C7 2.65 7 4.3 7 6 C6.01 6 5.02 6 4 6 C4 5.34 4 4.68 4 4 C3.34 4 2.68 4 2 4 C1.67 4.66 1.34 5.32 1 6 C0.34 4.35 -0.32 2.7 -1 1 C-0.67 0.67 -0.34 0.34 0 0 Z " fill="#696969" transform="translate(90,52)"/>
<path d="M0 0 C-3.24178353 2.16118902 -6.15599131 3.08783734 -9.84375 4.21875 C-12.24694441 4.99267788 -12.24694441 4.99267788 -15 7 C-14.765625 5.14453125 -14.765625 5.14453125 -14 3 C-9.74358192 0.071514 -5.03109037 -1.94751885 0 0 Z " fill="#C0C0C0" transform="translate(93,24)"/>
<path d="M0 0 C0.33 0.99 0.66 1.98 1 3 C0.01 3.495 0.01 3.495 -1 4 C-1.33 4.66 -1.66 5.32 -2 6 C-1.67 6.33 -1.34 6.66 -1 7 C-1.28604898 8.67542976 -1.61781233 10.34385343 -2 12 C-2.99 12 -3.98 12 -5 12 C-5.1953125 5.9453125 -5.1953125 5.9453125 -5 4 C-4.34 3.34 -3.68 2.68 -3 2 C-2.01 2 -1.02 2 0 2 C0 1.34 0 0.68 0 0 Z " fill="#C1C1C1" transform="translate(81,124)"/>
<path d="M0 0 C1.67770152 1.67770152 3.34820897 3.3590905 5 5.0625 C7.04545638 7.16068604 7.04545638 7.16068604 10 9 C9.67 9.99 9.34 10.98 9 12 C7.8944811 11.06409496 6.79064547 10.12620142 5.6875 9.1875 C5.07261719 8.66542969 4.45773438 8.14335938 3.82421875 7.60546875 C2.14575321 6.12827531 0.56117966 4.59960869 -1 3 C-0.67 2.01 -0.34 1.02 0 0 Z " fill="#272727" transform="translate(67,79)"/>
<path d="M0 0 C1.31225809 3.93677426 0.3393954 5.7794262 -0.9375 9.6875 C-1.50791016 11.45673828 -1.50791016 11.45673828 -2.08984375 13.26171875 C-2.39019531 14.16535156 -2.69054687 15.06898438 -3 16 C-3.66 15.67 -4.32 15.34 -5 15 C-4.5188509 9.22621075 -2.81532819 5.04140164 0 0 Z " fill="#DCDCDC" transform="translate(71,117)"/>
<path d="M0 0 C0.33 0.66 0.66 1.32 1 2 C1.66 2 2.32 2 3 2 C3.33 1.34 3.66 0.68 4 0 C4.33 0.99 4.66 1.98 5 3 C4.01 3.495 4.01 3.495 3 4 C2.30906104 6.57951874 2.30906104 6.57951874 1.875 9.5625 C1.70742187 10.57441406 1.53984375 11.58632812 1.3671875 12.62890625 C1.24601562 13.41136719 1.12484375 14.19382812 1 15 C0.67 15 0.34 15 0 15 C0 10.05 0 5.1 0 0 Z " fill="#B6B6B6" transform="translate(74,55)"/>
<path d="M0 0 C1.95216435 1.95216435 2.84826645 3.53199953 4 6 C4.66 4.35 5.32 2.7 6 1 C6.33 1 6.66 1 7 1 C6.50769231 8.38461538 6.50769231 8.38461538 3.9375 11.5 C3.298125 11.995 2.65875 12.49 2 13 C2.226875 12.46375 2.45375 11.9275 2.6875 11.375 C3.13779305 7.95277285 1.58985162 5.98892105 0 3 C0 2.01 0 1.02 0 0 Z " fill="#272727" transform="translate(66,153)"/>
<path d="M0 0 C2.66248083 2.66248083 2.71832705 4.26783345 3 8 C2.12993571 11.94875332 1.24635568 14.63046649 -1 18 C-0.505 9.09 -0.505 9.09 0 0 Z " fill="#212121" transform="translate(76,115)"/>
<path d="M0 0 C0.33 0.66 0.66 1.32 1 2 C2.65 1.67 4.3 1.34 6 1 C4.04539348 5.39786467 2.99110319 7.00667261 -1 10 C-0.67 6.7 -0.34 3.4 0 0 Z " fill="#8A8A8A" transform="translate(81,146)"/>
<path d="M0 0 C0.33 0.66 0.66 1.32 1 2 C1.66 2 2.32 2 3 2 C2.34 4.64 1.68 7.28 1 10 C0.54625 9.525625 0.0925 9.05125 -0.375 8.5625 C-1.93258204 6.90972192 -1.93258204 6.90972192 -4 6 C-3.525625 5.566875 -3.05125 5.13375 -2.5625 4.6875 C-0.76313043 2.97690387 -0.76313043 2.97690387 0 0 Z " fill="#252525" transform="translate(102,112)"/>
<path d="M0 0 C-0.50298788 4.40114397 -2.08772731 6.71195019 -5 10 C-5 7.03 -5 4.06 -5 1 C-3 0 -3 0 0 0 Z " fill="#8C8C8C" transform="translate(101,85)"/>
<path d="M0 0 C0.33 0.99 0.66 1.98 1 3 C2.65 2.67 4.3 2.34 6 2 C6.33 2.66 6.66 3.32 7 4 C6.34 4 5.68 4 5 4 C5.33 5.32 5.66 6.64 6 8 C5.01 8.33 4.02 8.66 3 9 C1.5 7.875 1.5 7.875 0 6 C-0.1875 2.8125 -0.1875 2.8125 0 0 Z " fill="#111111" transform="translate(63,71)"/>
<path d="M0 0 C0.99 0.495 0.99 0.495 2 1 C4.3329866 1.04022391 6.66706666 1.04320247 9 1 C9 1.99 9 2.98 9 4 C6.03 4 3.06 4 0 4 C0 2.68 0 1.36 0 0 Z " fill="#0E0E0E" transform="translate(82,160)"/>
<path d="M0 0 C0.99 0 1.98 0 3 0 C3 2.31 3 4.62 3 7 C2.34 7 1.68 7 1 7 C0.67 7.66 0.34 8.32 0 9 C-1.125 6.1875 -1.125 6.1875 -2 3 C-1.34 2.01 -0.68 1.02 0 0 Z " fill="#757575" transform="translate(116,130)"/>
<path d="M0 0 C0.99 0 1.98 0 3 0 C3 0.99 3 1.98 3 3 C3.66 3.33 4.32 3.66 5 4 C3.56465159 4.2226746 2.12654475 4.42761906 0.6875 4.625 C-0.11300781 4.74101563 -0.91351563 4.85703125 -1.73828125 4.9765625 C-4 5 -4 5 -7 3 C-4.69 2.34 -2.38 1.68 0 1 C0 0.67 0 0.34 0 0 Z " fill="#8B8B8B" transform="translate(87,46)"/>
<path d="M0 0 C1.32 0 2.64 0 4 0 C4 2.31 4 4.62 4 7 C3.34 7 2.68 7 2 7 C1.67 7.99 1.34 8.98 1 10 C0.67 6.7 0.34 3.4 0 0 Z " fill="#242424" transform="translate(98,136)"/>
<path d="M0 0 C1.61949011 2.57213134 2.04408751 3.67669159 1.625 6.75 C1.41875 7.4925 1.2125 8.235 1 9 C0.34 7.68 -0.32 6.36 -1 5 C-1.33 6.98 -1.66 8.96 -2 11 C-2.33 11 -2.66 11 -3 11 C-3.32613618 6.32538149 -2.70582788 3.83325617 0 0 Z " fill="#5B5B5B" transform="translate(70,53)"/>
<path d="M0 0 C-0.66 1.32 -1.32 2.64 -2 4 C-4.31 3.67 -6.62 3.34 -9 3 C-8.67 2.01 -8.34 1.02 -8 0 C-5.13822943 -1.43088528 -3.06624227 -0.59991697 0 0 Z " fill="#DBDBDB" transform="translate(96,19)"/>
<path d="M0 0 C0.66 0 1.32 0 2 0 C2 0.66 2 1.32 2 2 C2.66 2.33 3.32 2.66 4 3 C3.67 5.31 3.34 7.62 3 10 C1.5 8.9375 1.5 8.9375 0 7 C-0.1875 3.3125 -0.1875 3.3125 0 0 Z " fill="#262626" transform="translate(82,35)"/>
<path d="M0 0 C2.12508244 3.18762365 2.5020163 5.26512223 3 9 C2.34 9 1.68 9 1 9 C0.67 9.66 0.34 10.32 0 11 C-1.125 3.375 -1.125 3.375 0 0 Z " fill="#313131" transform="translate(117,142)"/>
<path d="M0 0 C0.99 0 1.98 0 3 0 C2.67 3.3 2.34 6.6 2 10 C1.01 9.67 0.02 9.34 -1 9 C-1.125 2.25 -1.125 2.25 0 0 Z " fill="#535353" transform="translate(110,126)"/>
<path d="M0 0 C1.65 0 3.3 0 5 0 C5 1.32 5 2.64 5 4 C4.34 4 3.68 4 3 4 C2.67 4.66 2.34 5.32 2 6 C1.34 5.67 0.68 5.34 0 5 C0 3.35 0 1.7 0 0 Z " fill="#AEAEAE" transform="translate(94,122)"/>
<path d="M0 0 C1.32 0 2.64 0 4 0 C4 1.98 4 3.96 4 6 C2.35 5.67 0.7 5.34 -1 5 C-0.67 3.35 -0.34 1.7 0 0 Z " fill="#030303" transform="translate(96,73)"/>
<path d="M0 0 C1.5625 1.4375 1.5625 1.4375 3 4 C2.96846324 7.05380927 2.53266629 9.99653222 2 13 C1.67 13 1.34 13 1 13 C0.83052421 11.58366664 0.66454493 10.16691467 0.5 8.75 C0.4071875 7.96109375 0.314375 7.1721875 0.21875 6.359375 C0 4 0 4 0 0 Z " fill="#969696" transform="translate(104,138)"/>
<path d="M0 0 C0.2475 0.639375 0.495 1.27875 0.75 1.9375 C1.81562433 4.18741541 1.81562433 4.18741541 4.125 4.75 C4.74375 4.8325 5.3625 4.915 6 5 C5.01 5.99 4.02 6.98 3 8 C3 7.34 3 6.68 3 6 C1.68 5.67 0.36 5.34 -1 5 C-1 2 -1 2 0 0 Z " fill="#595959" transform="translate(79,83)"/>
<path d="M0 0 C0.33 0.66 0.66 1.32 1 2 C1.66 2.33 2.32 2.66 3 3 C2.67 4.98 2.34 6.96 2 9 C1.01 9.33 0.02 9.66 -1 10 C-1.625 7.625 -1.625 7.625 -2 5 C-1.34 4.34 -0.68 3.68 0 3 C0 2.01 0 1.02 0 0 Z " fill="#9D9D9D" transform="translate(80,32)"/>
<path d="M0 0 C0.33 0 0.66 0 1 0 C1 4.29 1 8.58 1 13 C0.67 13 0.34 13 0 13 C-0.144375 12.236875 -0.28875 11.47375 -0.4375 10.6875 C-0.9632594 7.91827092 -0.9632594 7.91827092 -2 5 C-1.0625 2.3125 -1.0625 2.3125 0 0 Z " fill="#C7C7C7" transform="translate(75,113)"/>
<path d="M0 0 C-0.33 2.31 -0.66 4.62 -1 7 C-1.99 6.67 -2.98 6.34 -4 6 C-4.33 4.35 -4.66 2.7 -5 1 C-3 0 -3 0 0 0 Z " fill="#393939" transform="translate(100,60)"/>
<path d="M0 0 C0.66 0 1.32 0 2 0 C2 0.99 2 1.98 2 3 C1.34 3 0.68 3 0 3 C0.309375 3.928125 0.309375 3.928125 0.625 4.875 C0.74875 5.57625 0.8725 6.2775 1 7 C0.34 7.66 -0.32 8.32 -1 9 C-2.1875 7.3125 -2.1875 7.3125 -3 5 C-1.75 2.25 -1.75 2.25 0 0 Z " fill="#C3C3C3" transform="translate(92,56)"/>
<path d="M0 0 C0.33 0 0.66 0 1 0 C1 4.29 1 8.58 1 13 C0.01 13 -0.98 13 -2 13 C-1.34 8.71 -0.68 4.42 0 0 Z " fill="#393939" transform="translate(73,57)"/>
<path d="M0 0 C0.66 0.33 1.32 0.66 2 1 C0.68 3.64 -0.64 6.28 -2 9 C-2.99 8.34 -3.98 7.68 -5 7 C-3.35 4.69 -1.7 2.38 0 0 Z " fill="#414141" transform="translate(120,118)"/>
<path d="M0 0 C0.33 0.66 0.66 1.32 1 2 C-0.65 4.31 -2.3 6.62 -4 9 C-4.99 7.68 -5.98 6.36 -7 5 C-6.21625 4.731875 -5.4325 4.46375 -4.625 4.1875 C-1.71885077 3.15185568 -1.71885077 3.15185568 0 0 Z " fill="#DCDCDC" transform="translate(89,72)"/>
<path d="M0 0 C0.66 0 1.32 0 2 0 C2.33 1.65 2.66 3.3 3 5 C1.35 5 -0.3 5 -2 5 C-1.34 3.35 -0.68 1.7 0 0 Z " fill="#E1E1E1" transform="translate(95,130)"/>
<path d="M0 0 C0.33 0 0.66 0 1 0 C1 2.31 1 4.62 1 7 C-0.32 6.67 -1.64 6.34 -3 6 C-3.33 4.68 -3.66 3.36 -4 2 C-3.01 2 -2.02 2 -1 2 C-0.67 1.34 -0.34 0.68 0 0 Z " fill="#4A4A4A" transform="translate(100,76)"/>
<path d="M0 0 C6.15234375 0.5859375 6.15234375 0.5859375 8 1 C8.33 1.66 8.66 2.32 9 3 C6.03 3 3.06 3 0 3 C0 2.01 0 1.02 0 0 Z " fill="#9D9D9D" transform="translate(64,71)"/>
<path d="M0 0 C0.99 0.33 1.98 0.66 3 1 C2.67 3.64 2.34 6.28 2 9 C-0.29013653 5.5647952 -0.17842973 4.014669 0 0 Z " fill="#9C9C9C" transform="translate(79,59)"/>
<path d="M0 0 C2.475 0.99 2.475 0.99 5 2 C5 3.65 5 5.3 5 7 C3.29115995 5.37660195 1.62553283 3.70680947 0 2 C0 1.34 0 0.68 0 0 Z " fill="#565656" transform="translate(73,157)"/>
<path d="M0 0 C1.2380014 3.57644848 0.74926071 6.33694766 0 10 C-0.33 9.01 -0.66 8.02 -1 7 C-1.66 7 -2.32 7 -3 7 C-2.38722388 4.03824877 -1.74627478 2.61941217 0 0 Z " fill="#282828" transform="translate(79,55)"/>
<path d="M0 0 C1.65 0.99 3.3 1.98 5 3 C4.67 3.99 4.34 4.98 4 6 C2.02 5.34 0.04 4.68 -2 4 C-1.34 3.67 -0.68 3.34 0 3 C0 2.01 0 1.02 0 0 Z " fill="#DDDDDD" transform="translate(95,48)"/>
<path d="M0 0 C0.99 0.495 0.99 0.495 2 1 C2.40729228 3.32156597 2.74438677 5.6568787 3 8 C2.01 8 1.02 8 0 8 C0 5.36 0 2.72 0 0 Z " fill="#A1A1A1" transform="translate(75,139)"/>
<path d="M0 0 C1.98 0.99 1.98 0.99 4 2 C4 2.99 4 3.98 4 5 C2.68 5 1.36 5 0 5 C0 3.35 0 1.7 0 0 Z " fill="#CFCFCF" transform="translate(92,136)"/>
<path d="M0 0 C2.475 0.495 2.475 0.495 5 1 C4 3 4 3 2 6 C1.34 6 0.68 6 0 6 C0 4.02 0 2.04 0 0 Z " fill="#464646" transform="translate(81,92)"/>
<path d="M0 0 C0.6875 1.75 0.6875 1.75 1 4 C-0.4375 6.25 -0.4375 6.25 -2 8 C-2.6875 6.25 -2.6875 6.25 -3 4 C-1.5625 1.75 -1.5625 1.75 0 0 Z " fill="#424242" transform="translate(108,42)"/>
<path d="M0 0 C1.32 0.99 2.64 1.98 4 3 C3.67 3.99 3.34 4.98 3 6 C1.68 5.67 0.36 5.34 -1 5 C-0.67 3.35 -0.34 1.7 0 0 Z " fill="#F4F4F4" transform="translate(82,43)"/>
</svg>
